<?xml version="1.0" encoding="UTF-8"?><svg id="Capa_2" xmlns="http://www.w3.org/2000/svg" viewBox="0 0 142.2 142.24"><defs><style>.cls-1{fill:#0097ff;}</style></defs><g id="Capa_1-2"><path class="cls-1" d="m0,114.71V49.16c1.07-2.88,3.19-4.02,6.18-3.77.69.06,1.4.07,2.08-.03.31-.04.77-.36.83-.63.29-1.19,1.11-1.79,2.16-2.14,3.32-1.12,6.63-2.3,10-3.24,1.37-.38,1.78-.88,1.77-2.31-.08-8.74-.05-17.48-.03-26.23,0-2.24.99-3.05,3.15-2.51,2.33.58,4.63,1.25,6.94,1.92,1.22.36,2.41.81,3.79,1.29,0-3.07.03-5.93-.01-8.78C36.83,1.51,37.19.56,38.33,0,38.79,0,39.25,0,39.72,0c.61.19,1.22.39,1.84.55,6.22,1.65,11.83,4.46,16.62,8.81,7.23,6.55,11.27,14.88,13.45,24.22.61,2.6.98,5.25,1.46,7.88.1-.02.2,0,.27-.05.19-.13.37-.27.56-.41,14.14-10.9,30.27-15.94,47.99-16.26,2.23-.04,2.88.62,2.88,2.87,0,3.79.05,7.59-.03,11.38-.02,1.09.36,1.53,1.35,1.84,1.76.55,3.5,1.2,5.19,1.94.63.28,1.44.85,1.56,1.42.27,1.21.95,1.27,1.89,1.21.65-.04,1.3-.01,1.94,0,3.59.02,5.51,1.91,5.51,5.46,0,28.6,0,57.2,0,85.8,0,3.63-1.93,5.53-5.59,5.53-19.76,0-39.52,0-59.28.02-1.19,0-2.09-.32-2.93-1.21-1.76-1.87-4.72-1.95-6.46-.11-1.01,1.07-2.08,1.32-3.45,1.32-19.35-.03-38.69-.06-58.04.03-3.01.01-5.2-.83-6.45-3.64v-12.78c.75-.94,1.68-1.47,2.89-1.04,1.24.45,1.3,1.52,1.29,2.64-.02,2.96.05,5.93-.03,8.89-.04,1.34.38,1.75,1.73,1.74,19.26-.04,38.51-.02,57.77-.06.66,0,1.43-.29,1.96-.7,3.2-2.44,7.66-2.47,10.87-.11.64.47,1.55.81,2.34.81,19.02.04,38.05.03,57.07.03q2.15,0,2.15-2.1c0-28.1,0-56.19,0-84.29,0-.37.1-.78-.03-1.1-.15-.36-.48-.89-.77-.91-1.32-.1-2.65-.04-4.13-.04v1.93c0,26.25,0,52.49,0,78.74,0,2.82-.5,3.32-3.3,3.32-39.11,0-78.23,0-117.34,0-2.92,0-3.38-.46-3.38-3.36,0-26.25,0-52.49,0-78.74v-1.91c-1.1,0-2.01,0-2.93,0q-1.99,0-2,1.99c0,20.55,0,41.1,0,61.66,0,1.12-.06,2.18-1.32,2.61-1.24.42-2.14-.13-2.85-1.1ZM124.88,44.77c-.04.56-.09.92-.09,1.27-.02,1.43.02,2.87-.04,4.3-.05,1.19-.75,1.88-1.94,1.94-1.2.06-1.91-.6-2.12-1.76-.08-.45-.06-.92-.07-1.38,0-6.16,0-12.31,0-18.47,0-.54,0-1.08,0-1.7-.63,0-1.09-.05-1.53,0-4.62.61-9.31.93-13.86,1.91-11.58,2.5-21.98,7.54-31.03,15.28-.73.62-1.03,1.28-1.03,2.26.02,25.23.02,50.45.02,75.68,0,.47.06.94.1,1.64,14.04-10.91,29.85-16.07,47.33-16.7,0-.74,0-1.33,0-1.93,0-14.3,0-28.6,0-42.91,0-2.23.67-3.25,2.13-3.23,1.42.02,2.03.96,2.03,3.15,0,15.27,0,30.55,0,45.82,0,2.8-.46,3.27-3.34,3.3-6.46.05-12.83.88-19.05,2.61-3.28.91-6.48,2.08-9.72,3.13.03.13.06.25.09.38,12.22-2.18,24.19-.96,36.17,2.74v-1.82c0-24.11,0-48.23,0-72.34,0-.37.05-.75-.03-1.11-.06-.27-.24-.64-.46-.73-1.14-.47-2.3-.87-3.58-1.34Zm-55.86,63.95c0-.49,0-.98,0-1.47,0-19.34.04-38.69-.03-58.03-.01-3.64-.2-7.32-.72-10.92-1.18-8.08-3.99-15.57-9.18-22.01-4.68-5.81-10.72-9.53-17.99-11.52-.03.5-.07.9-.07,1.31,0,25.78,0,51.56-.02,77.33,0,1.02.3,1.41,1.3,1.68,7.3,2.02,13.59,5.74,18.7,11.38,3.29,3.63,5.78,7.77,8.02,12.25Zm-4.04,15.67c-.33-.58-.41-.74-.52-.89-9.62-13.49-22.18-22.75-38.45-26.65-2.89-.69-3.04-.86-3.04-3.81,0-16.01,0-32.03,0-48.04v-1.98c-2.97.96-5.66,1.88-8.38,2.7-1.07.32-1.37.87-1.37,1.98.04,24.25.03,48.51.03,72.76,0,.49,0,.97,0,1.63,17.51-5.27,34.61-5.52,51.73,2.3Zm2.88-3.43c.11-.04.22-.09.32-.13-.88-2.91-1.6-5.87-2.66-8.71-4.57-12.25-12.99-20.32-25.86-23.43-2.64-.64-2.8-.83-2.8-3.55,0-22.4,0-44.79,0-67.19,0-.42.05-.84-.02-1.25-.05-.27-.23-.67-.45-.75-3-1.12-6.01-2.19-9.17-3.32-.04.65-.07.92-.07,1.19,0,25.96,0,51.92-.02,77.88,0,.84.24,1.19,1.09,1.41,14.85,3.84,26.88,12.02,36.52,23.84,1.07,1.32,2.09,2.68,3.13,4.02Zm-2.94,8.38c-.08-.15-.11-.26-.17-.29-.65-.35-1.3-.7-1.96-1.02-6.53-3.13-13.44-4.85-20.65-5.39-9.62-.72-18.98.66-28.12,3.66-.32.1-.67.58-.73.93-.12.66-.03,1.36-.03,2.11h51.67Zm63.88.03q.39-2.79-2.11-3.56c-7.98-2.45-16.14-3.65-24.49-3.3-8.37.36-16.37,2.23-23.87,6.06-.37.19-.72.42-1.36.79h51.84Z"/></g></svg>