<?xml version="1.0" encoding="UTF-8"?><svg id="Capa_2" xmlns="http://www.w3.org/2000/svg" viewBox="0 0 143.97 134.98"><defs><style>.cls-1{fill:#0097ff;}</style></defs><g id="Capa_1-2"><path class="cls-1" d="m0,63.84c.83-1.53,2.09-2.02,3.82-2,6.23.08,12.47.03,18.7.03.51,0,1.01,0,1.66,0,0-1.65-.02-3.18,0-4.72.08-4.31-.12-8.64.32-12.91,1.1-10.79,10.65-20.17,21.42-21.49,3.74-.46,7.38-.2,10.98.87.3.09.62.15,1.02.24,0-5.89,0-11.7,0-17.51,0-1.12-.02-2.25,0-3.37.05-1.79,1.12-2.95,2.89-2.95C69.96,0,79.1,0,88.24.03c1.69,0,2.89,1.28,2.86,2.84-.03,1.61-1.26,2.75-3.09,2.76-7.59.02-15.18,0-22.78,0-.51,0-1.01,0-1.6,0-.03.46-.07.82-.07,1.18,0,6.28-.02,12.56.03,18.84,0,.55.31,1.29.73,1.62,7.03,5.39,10.51,12.5,10.48,21.35,0,.6,0,1.21,0,1.91h63.47V5.63c-.45,0-.94,0-1.43,0-7.36,0-14.71,0-22.07,0-.37,0-.75.01-1.12,0-1.68-.1-2.87-1.31-2.84-2.87.04-1.51,1.2-2.69,2.83-2.73,2.44-.05,4.87-.02,7.31-.02,6.51,0,13.03,0,19.54,0,2.5,0,3.48.99,3.48,3.5,0,16.4,0,32.8,0,49.21,0,2.57-.98,3.53-3.6,3.53-11.58,0-23.15,0-34.73,0-.56,0-1.12,0-1.78,0v5.62c.54,0,1.09,0,1.63,0,11.58,0,23.15,0,34.73,0,2.86,0,3.75.9,3.75,3.8,0,3.19,0,6.37,0,9.56,0,2.51-.98,3.49-3.49,3.5-.65,0-1.3,0-2.14,0,0,.62,0,1.17,0,1.71,0,16.87,0,33.74,0,50.61,0,3.08-.83,3.92-3.92,3.92-16.68,0-33.37,0-50.05,0-3.15,0-3.95-.82-3.95-4.02,0-16.78,0-33.55,0-50.33v-1.88c-1.91,0-3.76-.03-5.61.03-.29.01-.65.44-.82.76-1.71,3.27-4.42,4.84-8.09,4.83-4.03,0-8.06,0-12.09,0-.46,0-.91,0-1.44,0v5.62h1.47c4.03,0,8.06,0,12.09,0,5.06.02,8.84,3.61,8.86,8.39.02,4.85-3.78,8.46-8.92,8.47-2.57,0-5.15,0-7.94,0,0,1.85,0,3.66,0,5.46q0,5.47-5.52,5.85v5.55c.49,0,.99,0,1.49,0,4.17,0,8.34-.03,12.51.01,4.27.05,7.71,3.1,8.32,7.31.05.37.07.75.06,1.12-.07,1.53-1.18,2.7-2.63,2.79-1.44.09-2.69-.94-2.95-2.45-.44-2.54-1.16-3.15-3.72-3.16-4.35,0-8.69,0-13.18,0,0,1,.03,1.88,0,2.76-.08,1.69-1.29,2.88-2.85,2.86-1.51-.03-2.67-1.19-2.75-2.81-.04-.88,0-1.76,0-2.8-.89,0-1.68,0-2.46,0-3.75,0-7.5-.01-11.25,0-1.95,0-2.91.9-3.17,2.83-.24,1.81-1.49,2.93-3.07,2.77-1.6-.16-2.61-1.48-2.53-3.3.19-4.33,3.86-7.86,8.33-7.91,4.17-.05,8.34-.01,12.51-.01.5,0,1,0,1.57,0v-5.63c-.83,0-1.65.02-2.47,0-1.94-.05-3.05-1.13-3.08-3.06-.03-2.66,0-5.33,0-8.18-2.78,0-5.49.13-8.17-.05-1.5-.1-3.1-.44-4.41-1.13-3.4-1.77-4.93-5.61-4.01-9.33.9-3.64,4.17-6.3,7.97-6.35,4.68-.06,9.36-.01,14.15-.01v-5.63h-4.03c-2.91,0-5.81,0-8.72,0-4.79,0-7-1.32-9.22-5.58h-13.36v1.64c0,16.87,0,33.74,0,50.61,0,.51.03,1.04-.05,1.54-.21,1.37-1.38,2.36-2.73,2.38-1.4.02-2.62-1.02-2.81-2.45-.07-.51-.04-1.03-.04-1.54,0-16.78,0-33.55,0-50.33v-1.87c-2.07-.14-4.46.49-5.62-2v-12.93Zm49.39,14.9c5.39,0,10.78,0,16.16,0,2.67,0,3.61-.95,3.61-3.66,0-9,.02-17.99-.02-26.99,0-1.44-.12-2.91-.43-4.32-2.17-9.9-11.28-16.62-21.03-15.59-10.34,1.1-17.86,9.43-17.88,19.85-.02,9.04,0,18.09,0,27.13,0,2.59.98,3.56,3.56,3.57,5.34,0,10.68,0,16.02,0Zm36.75.06v22.32h46.5v-22.32h-46.5Zm46.48,50.49v-22.32h-46.5v22.32h46.5Zm5.65-56.23v-5.49h-63.38v5.49h63.38Zm-88.79,22.55c-3.28,0-6.55,0-9.83,0-2.34,0-4.68-.03-7.02.02-1.62.04-2.79,1.22-2.83,2.72-.04,1.56,1.15,2.77,2.83,2.88.33.02.65,0,.98,0,10.58,0,21.15,0,31.73,0,.42,0,.85.02,1.26-.02,1.5-.17,2.58-1.41,2.55-2.86-.04-1.4-1.11-2.55-2.55-2.72-.42-.05-.84-.02-1.26-.02-5.29,0-10.58,0-15.86,0Zm48.53-33.77v-5.5h-23.11v5.5h23.11ZM5.69,73.02h18.38v-5.45H5.69v5.45Zm41.09,33.91v5.45h5.46v-5.45h-5.46Z"/><path class="cls-1" d="m103.75,2.8c.01,1.55-1.3,2.85-2.85,2.82-1.5-.03-2.74-1.28-2.75-2.78-.01-1.55,1.29-2.85,2.85-2.82,1.5.03,2.74,1.28,2.75,2.78Z"/><path class="cls-1" d="m109.48,84.37c2.66,0,5.33-.02,7.99,0,1.9.02,3.16,1.18,3.15,2.83-.02,1.65-1.28,2.77-3.2,2.78-5.38.01-10.75.02-16.13,0-1.9,0-3.16-1.18-3.14-2.83.02-1.65,1.27-2.76,3.2-2.78,2.71-.02,5.42,0,8.13,0Z"/><path class="cls-1" d="m109.34,118.11c-2.66,0-5.33.01-7.99,0-1.93-.01-3.18-1.13-3.2-2.78-.02-1.66,1.24-2.82,3.15-2.83,5.38-.02,10.75-.02,16.13,0,1.92,0,3.18,1.13,3.2,2.78.02,1.65-1.25,2.82-3.15,2.83-2.71.02-5.42,0-8.13,0Z"/></g></svg>