<?xml version="1.0" encoding="UTF-8"?><svg id="Capa_2" xmlns="http://www.w3.org/2000/svg" viewBox="0 0 121.84 145.39"><defs><style>.cls-1{fill:#0097ff;}</style></defs><g id="Capa_1-2"><path class="cls-1" d="m55.49,145.39c-1.98-.75-4.01-1.38-5.93-2.26-5.4-2.46-7.64-7.74-5.61-13.32,2.42-6.66,4.96-13.28,7.39-19.94.24-.66.22-1.57-.03-2.23-.84-2.31-1.84-4.56-2.78-6.83-.79-1.91-1.18-3.87-.81-5.96.08-.47-.05-1.04-.24-1.49-1.71-3.94-3.42-7.89-5.22-11.8-1.58-3.44-4.29-5.45-8.13-5.44-14.86.01-24.52-7.53-30.43-20.62-.41-.9-.76-1.83-1.1-2.76-.75-2.05-.44-3.18.98-3.69,1.35-.48,2.28.2,3,2.19,1.44,3.93,3.34,7.62,6.02,10.87,5.37,6.52,12.3,9.76,20.74,9.71,4.12-.02,7.67,1.25,10.39,4.35,1.07,1.22,1.91,2.7,2.63,4.17,1.23,2.5,2.28,5.09,3.41,7.64.19.42.39.83.61,1.29,3.25-2.53,6.8-4.09,10.91-4.79-.66-1.52-1.32-3.02-1.98-4.51-.78-1.77-1.64-3.52-2.33-5.33-1.87-4.96-1.41-9.73,2.23-13.66,8.78-9.49,9.82-20.09,4.83-31.54-4.7-10.79-12.48-18.49-24.02-21.71C24.91,3.49,10.39,11.85,5.73,27.19c-1.48,4.87-1.83,9.84-1.29,14.88.17,1.56-.45,2.61-1.69,2.82-1.36.22-2.36-.57-2.51-2.2C-1.06,28.34,2.77,15.95,15.14,7.61,26.11.22,37.79.77,49.22,6.87c9.52,5.08,15.82,13.05,19.66,23.04.14.35.26.71.41,1.06.03.08.13.13.31.29.27-.45.53-.88.78-1.31,5.28-9.08,10.55-18.16,15.84-27.23,1.29-2.21,3.1-3.09,5.16-2.57,3.5.88,4.83,3.43,3.52,6.8-3.87,9.95-7.74,19.91-11.61,29.86-.14.35-.4.72-.37,1.06.03.42.21,1.06.49,1.17.38.15,1.01,0,1.37-.25.34-.25.49-.79.69-1.21,4.77-9.87,9.54-19.75,14.32-29.62,1.1-2.27,2.93-3.38,4.92-3.02,2.78.49,4.33,3.03,3.48,5.89-2.13,7.2-4.31,14.39-6.48,21.59-1.03,3.44-2.08,6.87-3.09,10.32-.25.85-.94,1.95.42,2.4,1.25.41,1.41-.79,1.72-1.59,3.88-9.95,7.75-19.9,11.63-29.85,1.26-3.24,3.88-4.25,6.96-2.7,2.04,1.03,2.87,2.91,2.32,5.39-2.4,10.94-4.8,21.88-7.2,32.82-.89,4.06-1.74,8.13-2.67,12.19-1.62,7.1-7.2,12.14-14.43,12.98-3.51.41-6.44,1.81-8.72,4.51-.84.99-1.84,1.35-3.01.66-.94-.56-1.16-1.49-.82-2.48.16-.47.52-.9.86-1.28,2.89-3.25,6.52-5.12,10.85-5.6,5.63-.62,9.83-4.14,11.07-9.68,3.32-14.85,6.55-29.72,9.79-44.59.09-.42-.09-.9-.14-1.35-.18-.01-.36-.02-.54-.03-.22.5-.45.99-.65,1.49-3.86,9.9-7.71,19.82-11.59,29.71-1.17,2.99-3.88,4.4-6.68,3.55-2.98-.9-4.47-3.83-3.51-7.03,2.08-6.97,4.2-13.93,6.29-20.9,1.2-3.97,2.39-7.94,3.32-12.04-.22.41-.44.81-.65,1.22-4.75,9.83-9.49,19.67-14.25,29.5-1.34,2.76-3.85,4.03-6.49,3.32-3.15-.85-4.74-4.1-3.51-7.33,2.12-5.56,4.3-11.1,6.46-16.65,1.73-4.45,3.48-8.89,5.18-13.35.18-.47.04-1.06.04-1.6-.38.33-.87.59-1.11,1-6.06,10.37-12.11,20.75-18.12,31.16-.32.56-.46,1.33-.4,1.98.6,6.07-.15,11.92-3.08,17.33-.76,1.4-.67,2.26.38,3.42,3.22,3.55,4.6,7.8,4.14,12.55-.17,1.71-.69,3.42-1.25,5.07-.8,2.37-1.79,4.67-2.75,7.15,4.05.54,7.73,1.89,11.12,4.33.47-1.15.91-2.27,1.38-3.39.61-1.45,1.66-2,2.88-1.53,1.19.47,1.61,1.62,1.08,3.09-.37,1.02-.77,2.03-1.19,3.04-.79,1.92-1.51,3.77-1.1,6,.23,1.26-.23,2.72-.63,4.01-.78,2.48-1.81,4.87-2.59,7.35-.23.72-.2,1.69.08,2.39,2.7,6.5,5.51,12.96,8.22,19.46,2.45,5.87.47,11.25-5.27,14.01-2.07.99-4.28,1.91-6.52,2.26-4.12.64-7.35-1.21-9.92-4.66-1.68,2.74-4.22,4.16-7.16,4.99h-3.41Zm29.07-12.48c-.14-.52-.3-1.46-.66-2.32-2.8-6.66-5.58-13.34-8.49-19.95-2.65-6.01-5.44-11.95-8.22-17.91-1.6-3.44-4.56-4.63-8.11-3.34-1.2.44-2.38.95-3.51,1.52-3.42,1.74-4.54,4.77-3.07,8.32,1.75,4.24,3.46,8.49,5.32,12.68,3.73,8.37,7.52,16.72,11.33,25.05,1.66,3.63,4.68,4.82,8.43,3.38,1.32-.51,2.63-1.09,3.87-1.77,2.04-1.12,3.01-2.93,3.11-5.66Zm-30.42-18.59c-2.25,6.23-4.5,12.12-6.5,18.1-.83,2.48.58,5.21,2.94,6.47,1.16.62,2.4,1.12,3.64,1.56,4.42,1.56,7.29.26,8.99-4.12.22-.57.19-1.39-.05-1.95-1.21-2.82-2.54-5.58-3.8-8.38-1.7-3.78-3.38-7.57-5.22-11.68Zm10.4-52.97c-.79.87-1.5,1.63-2.18,2.42-1.88,2.2-2.71,4.85-1.88,7.54,1.08,3.5,2.72,6.84,4.11,10.25.14-.01.28-.02.42-.03,1.02-2.88,2.29-5.7,3.01-8.65,1.07-4.36-.29-8.18-3.49-11.52Zm11.98,41.2c.66-1.92,1.32-3.54,1.76-5.2.67-2.49-.07-4.74-2.17-6.12-1.85-1.22-4.03-1.92-6.35-2.98,2.33,4.94,4.46,9.45,6.75,14.3Z"/><path class="cls-1" d="m34.77,64.39c-2.75-.61-5.53-1.14-8.25-1.86-1.51-.4-2.08-1.58-1.68-2.79.41-1.2,1.6-1.73,3.04-1.2,10.06,3.73,21.09-1.4,24.91-10.93.58-1.44,1.75-1.96,2.92-1.46,1.2.52,1.55,1.63.99,3.12-3.29,8.64-12.13,14.61-21.84,14.76-.03.12-.05.24-.08.35Z"/></g></svg>