<?xml version="1.0" encoding="UTF-8"?><svg id="Capa_2" xmlns="http://www.w3.org/2000/svg" viewBox="0 0 142.35 139.19"><defs><style>.cls-1{fill:#0097ff;}</style></defs><g id="Capa_1-2"><path class="cls-1" d="m142.35,31.17c-.66.89-1.38,1.67-2.65,1.23-1.31-.46-1.42-1.55-1.42-2.72,0-7.52,0-15.04,0-22.56,0-2.52-.46-2.98-3.02-2.98-42.72,0-85.44,0-128.15,0-2.63,0-3.05.42-3.05,3.08,0,38.9,0,77.8,0,116.7,0,2.58.48,3.06,3.1,3.06,1.3,0,2.59-.02,3.89,0,1.35.03,2.22.8,2.26,1.94.04,1.14-.83,2.02-2.15,2.05-1.85.04-3.71.07-5.56-.02-3.06-.14-5.45-2.61-5.6-5.68-.02-.46-.01-.93-.01-1.39,0-38.9,0-77.8,0-116.7C0,2.33,2.29.05,7.16.05,49.6.04,92.04.07,134.48,0c3.75,0,6.48,1.06,7.87,4.71v26.46Z"/><path class="cls-1" d="m142.35,126.17c-1.18,3.61-3.71,4.89-7.43,4.87-17.56-.1-35.11-.04-52.67-.04-2.2,0-3.18-.61-3.19-1.99,0-1.39.97-2.02,3.16-2.02,17.56,0,35.11,0,52.67,0,3.03,0,3.39-.37,3.39-3.46,0-26.18,0-52.36,0-78.54,0-.37,0-.74,0-1.11-.03-1.14.21-2.17,1.45-2.57,1.25-.4,2,.35,2.62,1.29v83.57Z"/><path class="cls-1" d="m71.98,91.14c.23,2.33.43,4.48.67,6.63,1.26,11.71,2.54,23.42,3.78,35.14.46,4.37-1.34,6.28-5.77,6.28-16.3,0-32.61,0-48.91,0-.6,0-1.21-.01-1.8-.11-2.69-.43-4.3-2.32-4.07-5.05.33-3.88.79-7.75,1.21-11.62.98-9.18,1.97-18.35,2.94-27.53.13-1.18.23-2.37.35-3.71-1.05,0-1.92-.05-2.79,0-4.16.26-6.31-2.94-6.28-5.56.03-3.39,2.52-5.64,6.36-5.64,9.59,0,19.18,0,28.76,0,9.13,0,18.25-.01,27.38,0,3.53,0,6,2.32,6.02,5.55.02,3.02-2.19,5.42-5.21,5.61-.82.05-1.65,0-2.64,0Zm-46.67-7.01c-.09.63-.2,1.21-.26,1.8-.72,6.68-1.44,13.37-2.15,20.05-.97,9.13-1.91,18.26-2.93,27.38-.16,1.39.21,1.76,1.58,1.75,9.26-.05,18.52-.03,27.78-.03.4,0,.8-.05,1.31-.08-.87-17.03-1.73-33.95-2.59-50.88h-22.76Zm39.94,50.97c1.75,0,3.37,0,4.98,0,2.4,0,2.48.14,2.09-2.21-.09-.55-.1-1.11-.16-1.66-1.07-10.01-2.14-20.01-3.21-30.02-.58-5.39-1.13-10.79-1.74-16.18-.04-.34-.45-.9-.71-.91-1.74-.08-3.49-.04-5.3-.04,1.35,17.1,2.69,34.01,4.04,51.02Zm-4.07-.08c-1.35-17.02-2.69-33.95-4.03-50.88h-5.02c.86,17,1.72,33.93,2.58,50.88h6.47Zm-39.99-50.94c-1.56,0-2.89,0-4.22,0-.99,0-1.72.58-1.56,1.5.1.58.86,1.38,1.43,1.48,1.28.22,2.63.07,3.98.07.13-1.06.24-1.96.37-3.05Zm50.38,3.04c.97,0,1.94.2,2.77-.07.59-.19,1.28-.94,1.39-1.53.15-.84-.53-1.42-1.47-1.44-1-.02-1.99,0-3.06,0,.14,1.11.25,2.01.37,3.04Z"/><path class="cls-1" d="m71.28,11.55c17.56,0,35.12,0,52.68,0,.92,0,1.87,0,2.76.2,2.34.53,4.08,2.64,4.29,5.07.05.55.05,1.11.05,1.67,0,14.48-.09,28.97.05,43.45.05,4.9-3.08,7.11-7.07,7.1-35.26-.08-70.52-.04-105.78-.06-.96,0-1.96-.05-2.88-.31-2.53-.71-4.06-2.97-4.07-5.96-.01-14.95-.02-29.9,0-44.85,0-3.98,2.31-6.3,6.31-6.32,6.16-.04,12.32-.01,18.49-.01,11.72,0,23.44,0,35.17,0Zm-.09,53.35c17.74,0,35.48,0,53.22,0,2.11,0,2.63-.51,2.63-2.61,0-14.67,0-29.33,0-44,0-2.16-.54-2.7-2.71-2.7-35.44,0-70.87,0-106.31,0-2.16,0-2.7.54-2.7,2.71,0,14.62,0,29.24,0,43.86,0,2.28.47,2.74,2.78,2.74,17.69,0,35.39,0,53.08,0Z"/><path class="cls-1" d="m108.46,89.12c0,1.72.03,3.44,0,5.15-.05,2.4-1.64,4-4.04,4.03-3.38.04-6.76.04-10.15,0-2.24-.02-3.91-1.41-3.99-3.62-.14-3.66-.14-7.33-.01-10.99.08-2.22,1.68-3.64,3.94-3.69,3.43-.07,6.86-.08,10.28,0,2.43.06,3.91,1.69,3.98,4.11,0,.09,0,.19,0,.28,0,1.58,0,3.16,0,4.74Zm-4.11,5.05v-10h-9.98v10h9.98Z"/><path class="cls-1" d="m99.34,102.17c1.67,0,3.34-.03,5,0,2.53.06,4.08,1.59,4.11,4.09.03,3.39.04,6.78,0,10.16-.03,2.31-1.46,3.92-3.77,3.99-3.56.11-7.13.1-10.7,0-2.14-.06-3.64-1.47-3.72-3.59-.13-3.66-.14-7.33,0-10.99.08-2.24,1.69-3.6,3.95-3.66,1.71-.05,3.43,0,5.14,0h0Zm-5,4.08v10.07h9.99v-10.07h-9.99Z"/><path class="cls-1" d="m131.05,89.15c0,1.67.04,3.34,0,5.01-.07,2.6-1.63,4.12-4.22,4.14-3.29.02-6.58.03-9.87,0-2.51-.02-4.1-1.56-4.14-4.07-.05-3.39-.05-6.78,0-10.16.03-2.44,1.55-4.02,4-4.08,3.43-.08,6.86-.08,10.28,0,2.37.06,3.85,1.63,3.93,4,.06,1.72.01,3.43.01,5.15h0Zm-4.11,5.02v-9.99h-10.04v9.99h10.04Z"/><path class="cls-1" d="m121.92,102.17c1.71,0,3.43-.04,5.14,0,2.38.07,3.92,1.54,3.97,3.93.07,3.48.07,6.96,0,10.44-.05,2.26-1.48,3.8-3.74,3.86-3.56.11-7.13.11-10.69,0-2.31-.07-3.73-1.64-3.76-3.99-.05-3.43-.05-6.87,0-10.3.04-2.37,1.58-3.85,3.95-3.96.09,0,.19,0,.28,0,1.62,0,3.24,0,4.86,0h0Zm-5.01,4.07v10.08h10.02v-10.08h-10.02Z"/><path class="cls-1" d="m99.53,37.07c1.31-2.28,2.53-4.35,3.71-6.44.88-1.56,2.2-2.17,3.95-1.97,1.2.14,1.99.73,2.18,1.96.08.5.1,1.02.1,1.52,0,5.99,0,11.98,0,17.97,0,.96.03,1.92-1.08,2.31-1.23.43-2.51.53-3.55-.37-.37-.32-.51-1.07-.52-1.62-.05-3.25-.02-6.5-.02-9.75,0-.44,0-.89,0-1.33-.09-.03-.17-.05-.26-.08-.88,1.5-1.73,3.01-2.63,4.49-1.14,1.9-2.75,1.88-3.82-.03-.85-1.53-1.69-3.08-2.72-4.97-.07.75-.14,1.12-.14,1.49,0,3.34,0,6.68,0,10.03,0,1.77-.72,2.42-2.6,2.42-1.87,0-2.56-.65-2.57-2.44,0-6.13,0-12.26,0-18.38,0-1.32.15-2.54,1.6-3.07,1.53-.57,3.31-.12,4.2,1.27,1.42,2.22,2.71,4.53,4.17,7Z"/><path class="cls-1" d="m39.02,47.64c-.35,1.3-.66,2.51-1.02,3.71-.38,1.27-1.31,1.64-2.91,1.22-1.62-.43-2.38-1.34-2-2.6,1.95-6.52,3.93-13.04,5.93-19.55.41-1.34,1.68-2.01,3.47-1.99,1.84.01,2.97.65,3.41,2.05,2,6.46,3.98,12.93,5.94,19.4.39,1.28-.29,2.2-1.89,2.66-1.63.47-2.59.08-3-1.23-.37-1.19-.41-2.86-1.21-3.42-.89-.62-2.49-.22-3.77-.24-.92-.02-1.85,0-2.94,0Zm5.82-4c-.78-2.87-1.53-5.61-2.28-8.35-.08,0-.15.02-.23.02-.74,2.75-1.49,5.49-2.26,8.32h4.77Z"/><path class="cls-1" d="m66.4,33.24c-1.36,0-2.6.01-3.83,0-1.65-.02-2.24-.63-2.25-2.28-.02-1.67.57-2.31,2.19-2.31,4.31,0,8.61,0,12.92,0,1.54,0,2.13.63,2.15,2.22.02,1.66-.6,2.34-2.17,2.38-1.16.02-2.31.03-3.47.04-.09,0-.17.06-.39.14-.02.43-.06.92-.06,1.41,0,5.2,0,10.39,0,15.59,0,1.65-.72,2.27-2.56,2.27-1.84,0-2.52-.62-2.52-2.31,0-5.15,0-10.3,0-15.45,0-.5,0-1,0-1.7Z"/></g></svg>