<?xml version="1.0" encoding="UTF-8"?><svg id="Capa_2" xmlns="http://www.w3.org/2000/svg" viewBox="0 0 127.75 143.05"><defs><style>.cls-1{fill:#0097ff;}</style></defs><g id="Capa_1-2"><path class="cls-1" d="m120.74,0c.17.08.33.18.5.23,4.22,1.2,6.5,4.19,6.5,8.62,0,12.85,0,25.7,0,38.55,0,10.43,0,20.86,0,31.29,0,5.62-3.44,9.07-9.04,9.07-12.92,0-25.85,0-38.77,0h-1.84c.15,2.6.22,5.06.44,7.5.19,2.18.54,4.34.79,6.51.1.84.47,1.15,1.36,1.13,2.56-.06,5.13-.06,7.7,0,1.82.04,2.94,1.65,2.04,3-.39.58-1.31,1.06-2.03,1.12-1.99.15-4.01.05-6.01.05-13.9,0-27.81,0-41.71,0-.23,0-.47,0-.7,0-1.88,0-2.88-.73-2.88-2.08,0-1.34,1.04-2.1,2.9-2.11,2.43,0,4.85.03,7.28-.03.38,0,1.04-.4,1.07-.68.57-4.73,1.06-9.48,1.59-14.41h-2.06c-12.92,0-25.85,0-38.77,0-5.61,0-9.04-3.44-9.04-9.07C.05,55.82.11,32.96,0,10.1-.02,5.58,1.39,1.61,7.06,0,44.96,0,82.85,0,120.74,0ZM9.79,67.54c0-.65,0-1.2,0-1.75,0-16.85,0-33.71,0-50.56,0-4.09,1.67-5.75,5.77-5.75,32.24,0,64.48,0,96.73,0,.51,0,1.03-.02,1.54.03,2.09.2,4.04,1.89,4.1,3.94.13,4.6.09,9.22.04,13.82-.01,1.13-.79,1.77-1.92,1.82-1.14.06-1.86-.53-2.12-1.62-.1-.45-.1-.92-.1-1.39,0-3.54,0-7.08,0-10.62q0-1.8-1.86-1.81c-32.06,0-64.11,0-96.17,0q-1.81,0-1.81,1.85c0,16.81,0,33.62,0,50.43v1.57h99.83c0-.64,0-1.19,0-1.74,0-9.31,0-18.62,0-27.94,0-.6,0-1.22.16-1.79.28-1.03,1.05-1.51,2.11-1.43,1.07.08,1.71.68,1.87,1.74.07.5.05,1.02.05,1.53,0,9.31,0,18.62,0,27.94,0,.55,0,1.09,0,1.71h5.53v-1.57c0-18.9,0-37.81,0-56.71,0-3.53-1.55-5.06-5.14-5.06-36.35,0-72.7,0-109.04,0-3.57,0-5.11,1.53-5.11,5.08,0,18.9,0,37.81,0,56.71,0,.5,0,.99,0,1.55h5.53Zm-5.37,4.32c-.07.15-.13.23-.13.31-.01,2.05-.03,4.1-.03,6.14,0,3.78,1.46,5.24,5.21,5.24,36.29,0,72.59,0,108.88,0,.42,0,.84.01,1.26-.01,1.99-.12,3.76-1.6,3.87-3.57.15-2.68.04-5.37.04-8.11-39.78,0-79.45,0-119.1,0Zm48.33,30.9h22.3c-.43-5.03-.86-9.96-1.29-14.92h-19.72c-.44,5.03-.86,9.96-1.29,14.92Z"/><path class="cls-1" d="m9.43,138.81h108.91c-.12-.48-.21-.9-.34-1.32-1.88-5.94-3.79-11.86-5.62-17.82-.34-1.12-.82-1.49-2.01-1.49-22.72.04-45.44.03-68.16.03-.51,0-1.03.02-1.54-.02-1.19-.1-1.89-.74-1.99-1.94-.09-1.15.67-2.04,1.87-2.21.37-.05.74-.03,1.12-.03,23.09,0,46.19,0,69.28,0,3.02,0,4.33.94,5.24,3.8,2.01,6.33,4.02,12.67,6.01,19.01,1.15,3.67-.72,6.21-4.55,6.21-35.83,0-71.66,0-107.49,0-3.85,0-5.72-2.54-4.56-6.2,2.01-6.38,4.03-12.76,6.07-19.14.86-2.71,2.2-3.67,5.04-3.68,4.71,0,9.42-.02,14.14,0,1.88,0,2.96,1.37,2.34,2.86-.44,1.06-1.31,1.33-2.38,1.33-4.48-.02-8.96.04-13.44-.04-1.15-.02-1.59.35-1.92,1.43-1.82,5.95-3.74,11.88-5.62,17.82-.14.43-.24.86-.38,1.38Z"/><path class="cls-1" d="m41.25,134.38c-.51,0-1.02.04-1.53,0-1.19-.1-2.01-.98-2.01-2.08,0-1.1.83-1.99,2.02-2.07.97-.06,1.95-.06,2.92,0,1.27.07,2.12,1,2.08,2.16-.04,1.11-.87,1.92-2.09,2-.46.03-.93,0-1.39,0,0,0,0,0,0,0Z"/><path class="cls-1" d="m52.62,126.86c-.51,0-1.02.03-1.53,0-1.2-.09-1.89-.81-1.96-1.96-.07-1.17.62-1.99,1.76-2.14,1.14-.14,2.33-.15,3.47,0,1.14.15,1.81.93,1.74,2.14-.07,1.19-.76,1.85-1.95,1.95-.51.04-1.02,0-1.53,0Z"/><path class="cls-1" d="m63.94,126.85c-.51,0-1.03.05-1.53-.01-1.11-.13-1.77-.79-1.86-1.9-.09-1.13.5-1.97,1.57-2.13,1.22-.18,2.51-.19,3.74-.02,1.14.15,1.77,1.02,1.66,2.2-.11,1.1-.78,1.76-1.91,1.86-.55.05-1.11,0-1.67,0Z"/><path class="cls-1" d="m75.41,126.86c-.51,0-1.02.04-1.53,0-1.11-.11-1.8-.72-1.9-1.85-.11-1.2.49-2.05,1.63-2.22,1.18-.17,2.42-.17,3.6-.02,1.14.15,1.82,1,1.72,2.16-.09,1.14-.79,1.85-2,1.93-.51.03-1.02,0-1.53,0Z"/><path class="cls-1" d="m97.97,126.86c-.51,0-1.02.03-1.53,0-1.2-.1-1.89-.81-1.96-1.96-.07-1.17.61-1.99,1.76-2.14,1.14-.14,2.33-.15,3.47,0,1.14.15,1.81.93,1.74,2.14-.07,1.19-.76,1.85-1.95,1.95-.51.05-1.02,0-1.53,0Z"/><path class="cls-1" d="m29.85,126.86c-.51,0-1.02.04-1.53,0-1.18-.1-1.89-.74-1.96-1.94-.08-1.21.58-2,1.72-2.15,1.14-.15,2.33-.15,3.47,0,1.15.14,1.79.95,1.79,2.12,0,1.1-.89,1.91-2.1,1.98-.46.03-.93,0-1.39,0Z"/><path class="cls-1" d="m52.54,134.37c-.51,0-1.03.06-1.53-.01-1.17-.16-1.87-.89-1.88-2.04-.01-1.16.67-1.95,1.84-2.07,1.06-.11,2.14-.09,3.2-.02,1.2.08,1.97.98,1.94,2.12-.02,1.13-.82,1.94-2.04,2.03-.51.04-1.02,0-1.53,0,0,0,0,0,0,0Z"/><path class="cls-1" d="m86.76,134.38c-.51,0-1.03.06-1.53-.01-1.17-.16-1.87-.89-1.89-2.04-.01-1.16.67-1.95,1.84-2.08,1.01-.11,2.04-.08,3.06-.03,1.29.06,2.12.95,2.1,2.13-.03,1.17-.87,1.97-2.19,2.04-.46.02-.93,0-1.39,0,0,0,0,0,0-.01Z"/><path class="cls-1" d="m29.95,130.22c.51,0,1.03-.06,1.53.01,1.17.18,1.86.92,1.85,2.07,0,1.16-.7,1.93-1.88,2.04-1.06.1-2.14.1-3.2,0-1.16-.1-1.85-.8-1.91-2-.05-1.14.73-2.01,1.93-2.13.55-.05,1.11,0,1.67,0,0,0,0,0,0,0Z"/><path class="cls-1" d="m97.99,134.38c-.51,0-1.02.04-1.53,0-1.18-.11-2.02-1-2.01-2.09,0-1.09.85-1.98,2.04-2.06.97-.06,1.95-.06,2.92,0,1.28.07,2.09.97,2.05,2.16-.04,1.13-.85,1.91-2.08,2-.46.03-.93,0-1.39,0Z"/><path class="cls-1" d="m86.79,126.86c-.51,0-1.02.04-1.53,0-1.2-.11-1.87-.84-1.92-2-.05-1.1.59-1.93,1.67-2.08,1.18-.16,2.42-.16,3.6,0,1.14.15,1.79.98,1.7,2.17-.09,1.18-.8,1.83-1.99,1.91-.51.03-1.02,0-1.53,0Z"/><path class="cls-1" d="m75.39,134.38c-.46,0-.93.03-1.39,0-1.23-.09-2.02-.89-2.04-2.03-.03-1.19.79-2.06,2.08-2.13.93-.05,1.86-.05,2.78,0,1.28.07,2.16.96,2.15,2.1-.01,1.14-.9,1.99-2.18,2.07-.46.03-.93,0-1.39,0Z"/><path class="cls-1" d="m41.15,126.86c-.46,0-.93.02-1.39,0-1.2-.07-1.88-.73-2.02-1.89-.13-1.1.65-2.11,1.82-2.23,1.06-.11,2.14-.1,3.2-.02,1.2.09,2,1.02,1.98,2.12-.02,1.17-.88,1.97-2.19,2.03-.46.02-.93,0-1.39,0Z"/><path class="cls-1" d="m64.02,130.22c.56,0,1.13-.07,1.67.01,1.15.19,1.85.89,1.84,2.08-.01,1.18-.71,1.92-1.88,2.04-1.01.1-2.04.07-3.06.02-1.21-.06-2.03-.91-2.05-2.02-.03-1.17.81-2.04,2.09-2.14.46-.03.93,0,1.39,0v.02Z"/><path class="cls-1" d="m31.1,55.81c-.73-.59-1.61-.95-1.75-1.5-.19-.74-.09-1.82.35-2.4,1.67-2.18,3.52-4.21,5.31-6.3,5.21-6.08,10.41-12.17,15.62-18.25.21-.25.42-.5.64-.74.95-.98,2.06-1.1,2.99-.35.93.76,1.02,2.04.15,3.1-1.57,1.9-3.19,3.76-4.8,5.64-5.45,6.37-10.89,12.74-16.37,19.08-.54.63-1.31,1.05-2.14,1.71Z"/><path class="cls-1" d="m30.9,42.22c-.54-.43-1.32-.77-1.57-1.34-.25-.58-.26-1.61.11-2.05,1.97-2.4,4.04-4.73,6.17-7,.8-.85,1.88-.83,2.77-.05.89.78,1.05,1.86.3,2.74-2,2.38-4.09,4.68-6.2,6.97-.31.34-.89.42-1.58.73Z"/><path class="cls-1" d="m63.79,79.78c-1.31,0-2.61.03-3.92,0-1.41-.05-2.32-.9-2.32-2.09,0-1.19.9-2.05,2.33-2.07,2.7-.04,5.41-.04,8.11,0,1.34.02,2.21.86,2.25,2,.04,1.19-.87,2.1-2.25,2.15-1.4.05-2.8.01-4.19.01Z"/></g></svg>