<?xml version="1.0" encoding="UTF-8"?><svg id="Capa_2" xmlns="http://www.w3.org/2000/svg" viewBox="0 0 144.27 144.27"><defs><style>.cls-1{fill:#0097ff;}</style></defs><g id="Capa_1-2"><path class="cls-1" d="m0,27.9c.18-.43.36-.86.54-1.28,1.18-2.68,4.07-4.25,6.9-3.72,2.87.53,5.13,2.95,5.2,5.85.1,3.99.06,7.98,0,11.97-.02,1.82-.88,3.31-2.22,4.56-.27.25-.49.77-.43,1.11.05.25.59.57.92.58,2.79.11,4.58,1.59,5.85,3.97,6.21,11.62,12.47,23.21,18.66,34.84.58,1.08,1.09,1.42,2.37,1.16,12.86-2.63,25.74-5.17,38.61-7.73.55-.11,1.1-.23,1.78-.37.02-.51.06-1.01.06-1.5,0-23.71,0-47.41,0-71.12q0-1.97-1.94-1.97c-4.13,0-8.26.05-12.39-.03-1.34-.02-1.7.45-1.66,1.72.08,2.72-.03,5.45.04,8.17.05,1.87-.58,3.37-1.95,4.63-1.21,1.1-2.37,2.25-3.64,3.46,1.77,1.83,2.94,3.75,3.13,6.15.2,2.62-.53,4.92-2.28,6.87-1.61,1.8-3.84,1.92-5.58.22-3.62-3.55-7.21-7.13-10.76-10.75-1.74-1.78-1.55-4,.34-5.68,2.74-2.44,7.72-3.51,12.18.21,1.35-1.32,2.74-2.63,4.06-4,.24-.25.24-.78.24-1.19.02-2.49.14-4.98-.02-7.46-.2-3.05.82-5.28,3.68-6.55h16.91c2.94,1.07,3.91,3.23,3.9,6.26-.06,17.61-.03,35.22-.03,52.83v1.77h9.57c.33-3.26,1.29-4.13,4.53-4.13,9.49,0,18.97,0,28.46,0,.56,0,1.14,0,1.67.15,1.04.27,1.56,1.02,1.51,2.09-.05,1.07-.65,1.75-1.71,1.92-.5.08-1.03.06-1.55.06-8.97,0-17.94,0-26.91,0-.54,0-1.08,0-1.59,0v4.16h43.49v-4.16c-1.5,0-2.9.02-4.3,0-1.53-.03-2.35-.73-2.4-2-.05-1.32.8-2.15,2.36-2.21,1.5-.05,3.01.04,4.51-.03,1.95-.09,3.36.65,4.15,2.46v7.89c-.84,1.77-2.23,2.4-4.19,2.38-8.26-.07-16.53-.03-24.79-.03-.54,0-1.08,0-1.61,0v14.75c3.41.59,6.73,1.14,10.05,1.74,5.96,1.08,9.82,6.29,8.93,12-.91,5.86-6.32,9.81-12.34,8.83-9.03-1.46-18.04-3.05-27.05-4.58-3.54-.6-7.08-1.2-10.66-1.8v30.96c2.56,0,4.99-.03,7.43.01,1.34.02,2.18.88,2.18,2.08,0,1.2-.83,2.04-2.15,2.12-.42.03-.84,0-1.27,0-12.59,0-25.17,0-37.76,0-.55,0-1.09,0-1.63,0v4.44h63.2v-4.44c-3.93,0-7.78,0-11.62,0-.52,0-1.03.02-1.55,0-1.43-.06-2.3-.86-2.3-2.12,0-1.25.87-2.09,2.31-2.09,4.88-.02,9.77-.01,14.65,0,2.15,0,2.81.69,2.82,2.9,0,1.91,0,3.82,0,5.83.67,0,1.18,0,1.68,0,7.56,0,15.12.02,22.68-.02,1.29,0,2.29.31,2.97,1.43v2.82c-48.09,0-96.18,0-144.27,0v-2.82c.68-1.12,1.67-1.43,2.97-1.43,13.48.04,26.95.02,40.43.02.54,0,1.08,0,1.69,0,0-2.22-.02-4.23,0-6.25.02-1.72.78-2.46,2.52-2.48,1.39-.02,2.78,0,4.13,0v-8.68c-.2-.03-.3-.06-.39-.06-1.27,0-2.54,0-3.8-.01-2-.02-2.73-.73-2.74-2.7-.01-3.76,0-7.51,0-11.27,0-.48,0-.96,0-1.53-1.42.29-2.61.53-3.81.77-6.32,1.26-11.71-2.29-13.01-8.55-.13-.63-.36-1.26-.66-1.83-2.44-4.6-4.92-9.17-7.36-13.77-.72-1.35-.39-2.54.75-3.13,1.1-.57,2.21-.18,2.93,1.1.85,1.51,1.65,3.05,2.47,4.58,1.03,1.92,2.07,3.85,3.12,5.81,1.06-1.14,2.01-2.16,3-3.23-.11-.25-.23-.55-.39-.83-6.27-11.69-12.55-23.39-18.83-35.08-.18-.33-.35-.68-.6-.95-.77-.84-1.7-.99-2.67-.42-.92.54-1.21,1.41-.9,2.43.14.44.4.85.62,1.26,3.17,5.91,6.34,11.82,9.5,17.73.83,1.55.58,2.78-.65,3.39-1.17.59-2.26.12-3.06-1.38-3.31-6.15-6.61-12.31-9.91-18.47-1.3-2.43-1.12-4.77.44-7.02.64-.92.22-2.58-.84-2.85-2.64-.68-4.08-2.49-4.95-4.9,0-4.6,0-9.2,0-13.81Zm32.1,70.08c.03.15.07.67.2,1.17.96,3.6,4.17,5.29,8.3,4.46,9.28-1.87,18.57-3.71,27.85-5.57,4.23-.84,8.46-1.68,12.68-2.54,3.27-.67,5.44-3.33,5.34-6.47-.1-3.11-2.42-5.74-5.6-6.06-1.27-.12-2.6.19-3.88.44-13.24,2.62-26.48,5.26-39.71,7.91-3.14.63-5.2,3.18-5.18,6.66Zm55.44-1.15c.54.12.9.23,1.27.29,8.04,1.36,16.07,2.71,24.11,4.06,2.91.49,5.81,1.12,8.74,1.4,4.07.39,7.15-2.83,6.83-6.87-.24-3.08-2.53-5.18-6.24-5.81-8.73-1.47-17.45-2.97-26.18-4.44-2.09-.35-4.18-.67-6.45-1.03,1.95,4.68,1.19,8.68-2.07,12.4Zm21.72-13.4v-14.02c-.6,0-1.1,0-1.61,0-3.94,0-7.89.02-11.83,0-2.4-.01-3.53-1.11-3.69-3.47-.01-.22-.07-.43-.1-.64h-9.46v13.61c8.91,1.51,17.74,3.01,26.69,4.53Zm-44.63,39.13v8.63h13.54v-30.78c-2.25.44-4.39.86-6.61,1.3v1.61c0,5.49,0,10.97,0,16.46,0,2.06-.72,2.76-2.81,2.77-1.35,0-2.7,0-4.13,0Zm2.64-19.99c-6.13,1.23-12.17,2.43-18.14,3.63v12.06h18.14v-15.69ZM8.45,34.8c0-1.78.02-3.56,0-5.35-.02-1.51-.88-2.43-2.16-2.41-1.22.03-2.05.93-2.06,2.36-.02,3.56-.02,7.13,0,10.69,0,1.49.9,2.45,2.15,2.42,1.2-.03,2.04-.96,2.06-2.38.03-1.78,0-3.56,0-5.35Zm36.37-12.85c3.28,3.29,6.58,6.59,9.86,9.88,1.37-1.64,1.37-4.03-.2-5.78-1.22-1.36-2.52-2.66-3.88-3.88-1.74-1.56-4.15-1.56-5.78-.22Zm11.32,100.67v8.59h4.06v-8.59h-4.06Z"/></g></svg>