<?xml version="1.0" encoding="UTF-8"?><svg id="Capa_2" xmlns="http://www.w3.org/2000/svg" viewBox="0 0 142.74 142.67"><defs><style>.cls-1{fill:#0097ff;}</style></defs><g id="Capa_1-2"><path class="cls-1" d="m142.74,126.49c-.65,2.56-1.69,4.88-3.81,6.63-2.12,1.74-4.55,2.43-7.23,2.43-12.64,0-25.27.05-37.91-.02-6.72-.04-11-4.47-11-11.19,0-30.25-.01-60.49,0-90.74,0-12,7.56-21.57,19.18-24.31,1.48-.35,3.03-.53,4.55-.52,5.29.04,10.63-.24,15.85.39,10.12,1.22,18.48,9.89,20.04,20.07.07.45.21.89.31,1.34v95.92Zm-44.61-43.34c0,4.92,0,9.85,0,14.77,0,1.99.69,2.75,2.64,2.76,7.99.02,15.98.02,23.97,0,1.96,0,2.66-.76,2.66-2.73,0-9.8,0-19.6,0-29.41,0-1.95-.72-2.69-2.71-2.69-7.94-.02-15.89-.02-23.83,0-2.05,0-2.73.74-2.73,2.81,0,4.83,0,9.66,0,14.49Zm40.38-48.11c-.22-.12-.3-.18-.38-.2-11.62-2.42-18.54-9.47-20.81-21.13-.07-.34-.71-.79-1.1-.81-1.95-.08-3.9.01-5.85-.06-1.02-.04-1.28.33-1.46,1.31-1.63,8.91-6.57,15.32-14.88,18.96-2.21.97-4.64,1.46-6.98,2.17v16.92c6.22-9.33,14.67-14.43,25.7-14.44,11.05,0,19.52,5.14,25.75,14.48v-17.2Zm-51.54,80c0,3.15,0,6.02,0,8.88,0,5.04,2.37,7.44,7.39,7.45,7.99,0,15.97,0,23.96,0,4.41,0,8.82.02,13.23,0,4.49-.03,6.97-2.54,6.99-7.01,0-2.65,0-5.29,0-7.94,0-.38-.06-.76-.11-1.31-2.42,1.78-5.01,2.07-7.7,2.06-11.19-.02-22.38-.01-33.57,0-3.47,0-6.98.3-10.19-2.11Zm46.86-61.95c-.03-.15-.02-.21-.05-.24-9.96-14.25-31.09-14.75-41.67-.5-.22.3-.16,1.05.07,1.39,1.41,2.13,3,4.14,4.33,6.31.9,1.46,1.85,2.25,3.62,1.67.46-.15,1.01-.04,1.52-.04,5.43,0,10.86-.03,16.29.01,3.05.03,6.11.19,9.16.26.26,0,.62-.17.77-.38,2.02-2.83,4-5.68,5.95-8.46Zm2.37,3.93c-1.52,2.15-2.87,4.15-4.31,6.08-.75,1.01-1.28,1.88-.61,3.22.37.73.3,1.72.3,2.6.02,9.33.03,18.67,0,28,0,1.28-.29,2.56-.4,3.85-.03.33.01.75.19,1.01,1.95,2.82,3.93,5.62,5.9,8.42.15.01.3.03.46.04.28-1.27.79-2.54.8-3.8.06-12.91.05-25.82.03-38.73,0-3.66-.71-7.18-2.35-10.69Zm-46.86,0c-1.69,3.61-2.35,7.27-2.36,11.07,0,5.02,0,10.03,0,15.05,0,7.71,0,15.42,0,23.13,0,1.43.22,2.79,1.26,4,1.74-2.47,3.36-4.85,5.06-7.16.8-1.08,1.45-2.06.79-3.5-.27-.59-.14-1.37-.14-2.07,0-9.29-.03-18.57.02-27.86,0-1.46.4-2.91.59-4.37.04-.29.08-.67-.06-.88-1.68-2.44-3.39-4.86-5.17-7.4Zm44.65,55.81c-1.84-2.62-3.5-4.92-5.08-7.26-.57-.85-1.06-1.38-2.22-.9-.69.29-1.55.21-2.34.21-7.71.01-15.42.02-23.13,0-.96,0-1.92-.28-2.89-.29-.45,0-1.08.19-1.32.52-1.68,2.28-3.29,4.61-4.91,6.93-.14.2-.18.46-.31.79h42.2ZM104.79,13.11c-9.75.76-17.47,10.21-17.42,17.54,8.3-.62,16.92-9.24,17.42-17.54Zm16.81.21c1.42,9.56,9.54,16.25,16.62,17.12-.47-8.27-8.47-16.42-16.62-17.12Z"/><path class="cls-1" d="m69.42,142.67v-4.09h4.18v4.09h-4.18Z"/><path class="cls-1" d="m59.94,78.48c0,15.33,0,30.66,0,45.99,0,4.48-1.81,7.98-5.9,9.92-1.57.75-3.48,1.1-5.23,1.11-12.54.09-25.08.08-37.62.04C4.32,135.52,0,131.12,0,124.25,0,94.05,0,63.85,0,33.66c0-12.03,7.49-21.57,19.12-24.35,1.52-.36,3.12-.56,4.68-.55,5.29.04,10.62-.22,15.85.4,10.08,1.19,18.65,10.16,19.97,20.28.2,1.51.29,3.05.29,4.58.02,14.82.01,29.64.01,44.46Zm-15.33,4.81c0-4.78,0-9.57,0-14.35,0-2.45-.61-3.08-3.02-3.08-7.76,0-15.51,0-23.27,0-2.34,0-2.98.66-2.98,2.98,0,9.62,0,19.23,0,28.85,0,2.34.64,3.01,2.95,3.01,7.8.01,15.61.01,23.41,0,2.24,0,2.91-.69,2.91-2.91,0-4.83,0-9.66,0-14.49Zm11.11-48.24c-.22-.12-.29-.18-.38-.2-11.63-2.42-18.54-9.47-20.81-21.13-.07-.34-.7-.8-1.09-.82-1.95-.08-3.9.01-5.85-.06-1.01-.04-1.27.33-1.46,1.31-2.04,10.44-8.19,17.2-18.41,20.2-1.14.33-2.32.5-3.46.74v17.12c6.22-9.33,14.67-14.44,25.7-14.44,11.05,0,19.52,5.14,25.76,14.48v-17.2ZM4.18,115.04c0,3.15,0,6.02,0,8.88,0,5.04,2.37,7.44,7.39,7.45,7.99,0,15.97,0,23.96,0,4.41,0,8.82.02,13.23,0,4.49-.03,6.97-2.54,6.99-7.01,0-2.65,0-5.29,0-7.94,0-.38-.06-.76-.11-1.31-2.42,1.78-5.01,2.07-7.7,2.06-11.19-.02-22.38-.01-33.57,0-3.47,0-6.98.3-10.19-2.11Zm4.67-62.03c1.62,2.31,3.3,4.53,4.78,6.89.95,1.51,1.91,2.49,3.82,1.8.41-.15.92-.04,1.38-.04,6.26,0,12.53-.02,18.79.01,2.22.01,4.44.18,6.66.25.23,0,.58-.08.69-.24,2.07-2.89,4.11-5.81,6.12-8.67-10.06-14.73-32.18-14.73-42.25,0Zm44.55,4.01c-1.52,2.15-2.87,4.15-4.31,6.08-.75,1.01-1.28,1.89-.61,3.23.37.74.3,1.73.3,2.6.02,9.33.03,18.67,0,28,0,1.28-.28,2.56-.4,3.85-.03.3-.03.67.12.89,1.97,2.86,3.98,5.69,5.98,8.54.15.01.31.02.46.04.28-1.27.79-2.54.8-3.81.06-12.91.05-25.82.03-38.73,0-3.66-.71-7.18-2.35-10.69Zm-46.86,0c-1.69,3.61-2.35,7.27-2.36,11.07,0,4.97,0,9.94,0,14.91,0,7.75,0,15.51,0,23.26,0,1.43.21,2.79,1.26,4,1.74-2.47,3.36-4.85,5.06-7.16.8-1.08,1.45-2.06.79-3.5-.27-.59-.14-1.37-.14-2.07,0-9.29-.03-18.57.02-27.86,0-1.46.4-2.91.6-4.37.04-.29.08-.67-.06-.88-1.68-2.44-3.39-4.86-5.17-7.4Zm2.23,55.77h42.39c-1.98-2.82-3.78-5.41-5.62-7.95-.17-.24-.7-.32-1.06-.3-1.06.07-2.11.33-3.16.33-7.57.03-15.14.03-22.71,0-1.05,0-2.1-.26-3.16-.33-.35-.02-.88.06-1.05.3-1.85,2.54-3.64,5.13-5.62,7.95ZM4.53,30.69c10.18-1.2,17.4-11.01,17.3-17.62-10,1.07-17.17,10.33-17.3,17.62Zm50.86-.21c-.34-8.44-8.98-16.8-16.56-17.07,1.41,8.69,8.45,15.96,16.56,17.07Z"/><path class="cls-1" d="m73.51,134.24h-4.02V8.38h4.02v125.86Z"/><path class="cls-1" d="m69.48,4.01V0h4.03v4.01h-4.03Z"/><path class="cls-1" d="m95.71,123.11v3.96h-4.03v-3.96h4.03Z"/><path class="cls-1" d="m131.01,123.09h3.98v4h-3.98v-4Z"/><path class="cls-1" d="m8.31,127.08v-3.98c1.35,0,2.63,0,4,0v3.98h-4Z"/><path class="cls-1" d="m47.66,123.07h3.96v4h-3.96v-4Z"/></g></svg>