<?xml version="1.0" encoding="UTF-8"?><svg id="Capa_2" xmlns="http://www.w3.org/2000/svg" viewBox="0 0 145.85 145.89"><defs><style>.cls-1{fill:#0097ff;}</style></defs><g id="Capa_1-2"><path class="cls-1" d="m145.63,33.29c.02-.18.14-.34.22-.51v-5.13c-.25-1.15-.46-2.32-.75-3.46-2.21-8.5-7.59-14.51-15.03-18.81-14.12-8.14-33.04-6.96-45.61,2.86-6.31,4.93-10.43,11.21-11.39,19.32-.45,3.79.11,7.47,1.42,11.37h-1.74c-5.18,0-10.37.04-15.56.05v4.81c6.12,0,12.24,0,18.35,0,.89,0,1.44.24,1.98,1,1.19,1.65,2.51,3.21,3.87,4.72.58.64.76,1.19.56,2.02-1.2,5.02-2.38,10.06-3.5,15.1-.18.8-.23,1.74.01,2.49.44,1.32,1.93,1.74,3.34,1.02,2.62-1.33,5.21-2.73,7.8-4.11,3.6-1.92,7.17-3.88,10.79-5.77.58-.3,1.37-.48,2.01-.38,7.72,1.22,15.22.39,22.52-2.37.13-.05.27-.06.74-.17.23,1.61.61,3.1.62,4.59.05,10.87.03,21.74.03,32.62-.04,0-.16.08-.22.04-2.81-1.87-5.94-2.26-9.23-2.24-10.92.07-21.84.07-32.75,0-4.43-.03-8.21,1.21-11.12,4.82-.21-.18-.4-.31-.54-.47-2.48-2.87-5.65-4.29-9.4-4.3-12.1-.04-24.21-.03-36.31,0-2.57,0-4.92.85-7.21,2.39-.04-.56-.1-.96-.1-1.35,0-9.92-.02-19.85,0-29.77.03-11.33,8.47-19.82,19.79-19.86,4.34-.01,8.67-.02,13.01-.02v-4.8c-4.08,0-8.16-.03-12.24-.1-12.83-.23-22.67,8.53-24.88,19.41-.03.13-.09.26-.03.1-2.68,0-5.22-.03-7.76,0-4.18.06-7.3,3.14-7.3,7.32-.02,17.04-.04,34.08,0,51.12.02,6.64,4.45,12.23,10.93,13.94.95.25,1.3.61,1.26,1.61-.09,1.94-.04,3.89-.02,5.84.03,3.75,1.77,6.15,5.3,7.39.17.06.31.18.46.27h12.53c3.66-1.17,5.91-3.47,5.98-7.5.03-1.85,0-3.7,0-5.55,0-.46,0-.93,0-1.45h72.92v5.58c0,5.2,1.21,7.01,5.98,8.92h12.53c3.24-1.21,5.54-3.21,5.74-6.92.07-1.28.03-2.56.03-3.83,0-1.28,0-2.55,0-3.91.32-.12.61-.27.91-.35,6.07-1.64,9.72-5.54,11.02-11.68.05-.23.16-.44.24-.66v-54.42c-.34-.71-.62-1.46-1.02-2.14-1.24-2.09-3.09-3.4-5.51-3.53-2.77-.15-5.56-.03-8.54-.03-.21-.79-.52-1.97-.81-3.05,2.05-1.55,4.14-2.93,6.01-4.58,5.3-4.66,8.75-10.39,9.65-17.5Zm-69.98,69.52c.43-3.24,3.5-5.52,7-5.54,12.14-.06,24.29-.07,36.43,0,4.17.02,7.15,3.06,7.33,7.19.07,1.56.05,3.13,0,4.7-.05,1.73-.92,2.59-2.65,2.7-.43.03-.85.01-1.28.01-15.04,0-30.07,0-45.11,0h-1.81c0-3.13-.3-6.14.08-9.06Zm-56.22,2.2c.05-4.68,3.09-7.74,7.79-7.76,8.25-.03,16.51,0,24.76,0,3.56,0,7.12-.02,10.67,0,4.8.03,7.78,3.01,7.83,7.83.02,2.18,0,4.35,0,6.78h-1.88c-15.13,0-30.26,0-45.39,0-3.14,0-3.78-.64-3.78-3.72,0-1.04,0-2.09,0-3.13Zm12.11,33.92c-.08,1.34-1.1,2.08-2.46,2.1-3.18.03-6.36.04-9.54,0-1.44-.02-2.42-.9-2.45-2.25-.07-2.41-.02-4.83-.02-7.39h14.52c0,2.55.1,5.06-.04,7.55Zm97.15.24c-.07,1.21-1.13,1.84-2.35,1.85-3.18.03-6.36.04-9.54,0-1.55-.02-2.51-.97-2.54-2.49-.05-2.32-.01-4.64-.01-7.14h14.5c0,2.6.11,5.2-.05,7.78Zm2.59-30.55c0-13.96,0-27.92,0-41.87,0-2.86.64-3.49,3.52-3.49,1.23,0,2.47-.03,3.7.01,1.46.05,2.37.95,2.48,2.4.03.38.01.76.01,1.14,0,16.33,0,32.66,0,48.99,0,6.63-4.02,10.67-10.62,10.67-19.18,0-38.35,0-57.53,0-19.03,0-38.07,0-57.1,0-6.92,0-10.89-3.95-10.89-10.83,0-16.28,0-32.57,0-48.85,0-2.85.68-3.53,3.5-3.53,1.09,0,2.18,0,3.28,0,2.09.02,2.92.84,2.93,2.94.01,7.03,0,14.05,0,21.08,0,7.12,0,14.24,0,21.36,0,5.07,2.98,8.1,8.03,8.1,33.56,0,67.12,0,100.67,0,5.04,0,8.01-3.03,8.01-8.11Zm-.02-60.17c-8.59,6.49-18.36,8.23-28.84,6.44-1.25-.21-2.3-.04-3.4.56-4.82,2.63-9.67,5.2-14.84,7.97,1-4.32,1.84-8.3,2.85-12.24.45-1.78.1-2.99-1.3-4.26-5.81-5.25-8.88-11.68-7.65-19.65,1.05-6.8,4.83-11.97,10.3-15.94,7.15-5.18,15.29-6.93,23.97-6.32,7.07.49,13.54,2.74,19.16,7.15,12.71,9.96,12.64,26.56-.25,36.29Z"/></g></svg>