<?xml version="1.0" encoding="UTF-8"?><svg id="Capa_2" xmlns="http://www.w3.org/2000/svg" viewBox="0 0 118.78 94.91"><defs><style>.cls-1{fill:#fff;}</style></defs><g id="Capa_1-2"><path class="cls-1" d="m23.82,57.37c9.38,2.43,18.74,3.84,28.47,4.11,0-2.31-.02-4.5,0-6.7.02-1.55.85-2.62,2.15-2.55.75.04,1.59.42,2.19.89,7.12,5.65,14.2,11.34,21.29,17.02.51.41,1.02.8,1.52,1.21,1.71,1.4,1.74,2.94.02,4.33-3.4,2.75-6.82,5.47-10.23,8.2-4.22,3.38-8.45,6.75-12.66,10.15-.9.72-1.81,1.19-2.96.64-1.15-.55-1.36-1.57-1.35-2.72.02-2.16,0-4.32,0-6.62-2.49-.18-4.88-.33-7.28-.55-10.19-.9-20.22-2.57-29.83-6.24-3.73-1.43-7.28-3.2-10.37-5.78C1.65,70.11-.09,66.87.03,62.6c.15-5.19.21-10.4-.02-15.59-.21-4.75,1.72-8.27,5.29-11.1,4.63-3.65,10.02-5.73,15.58-7.44,1.38-.42,2.69.57,2.9,2.04.06.43.03.86.03,1.3,0,8.01,0,16.03,0,24.04v1.52Zm33.21,30.42c5.98-4.86,11.72-9.52,17.54-14.25-5.87-4.77-11.6-9.41-17.54-14.24,0,1.5,0,2.69,0,3.89,0,2.53-.73,3.24-3.26,3.17-11.76-.29-23.3-2.02-34.58-5.41-4.25-1.28-8.25-3.06-11.96-5.51-.74-.49-1.48-.98-2.38-1.58,0,3.17.1,6.11-.03,9.04-.11,2.38.79,4.22,2.5,5.72,1,.88,2.08,1.7,3.21,2.41,3.62,2.26,7.59,3.73,11.66,4.93,10.1,2.98,20.46,4.23,30.94,4.65,3.44.14,3.92.59,3.92,4.09,0,.93,0,1.87,0,3.09ZM18.98,33.91c-2.73,1.3-5.3,2.31-7.66,3.7-1.83,1.08-3.58,2.44-5.03,3.99-2.02,2.16-1.99,4.54-.09,6.79,3.34,3.93,7.98,5.67,12.78,7.49v-21.97Z"/><path class="cls-1" d="m113.93,53.69c-8.31,6.6-17.96,8.64-27.65,10.55-.8.16-1.62.27-2.43.39-1.57.24-2.76-.5-3.04-1.9-.27-1.37.58-2.46,2.21-2.8,3.76-.78,7.52-1.56,11.28-2.34.17-.03.33-.1.65-.2,0-.46,0-.97,0-1.47,0-8.1.06-16.2-.04-24.3-.03-2.14,1.4-3.68,3.88-2.84,4.97,1.69,9.86,3.47,14.12,6.64,3.88,2.89,6.08,6.52,5.85,11.6-.24,5.36-.11,10.74-.03,16.11.05,3.38-1.17,6.15-3.5,8.5-3.01,3.05-6.71,5-10.6,6.6-6.75,2.78-13.83,4.31-21.01,5.46-1.56.25-2.8-.62-3-1.98-.23-1.55.68-2.56,2.62-2.85,6.12-.94,12.13-2.3,17.93-4.49,3.4-1.29,6.67-2.84,9.53-5.16,2.17-1.76,3.48-3.83,3.28-6.8-.19-2.78-.04-5.59-.04-8.72Zm-14.18,2.12c3.2-.76,8.56-3.52,11.11-5.67,4.07-3.43,4.08-6.84,0-10.25-.83-.69-1.68-1.39-2.64-1.87-2.54-1.28-5.13-2.45-7.71-3.65-.21-.1-.47-.1-.77-.17v21.6Z"/><path class="cls-1" d="m55.47,22.08c2.32,0,4.43,0,6.54,0,3.91.01,6.02,2.1,6.05,5.98.01,1.9.03,3.81,0,5.71-.07,3.47-2.24,5.63-5.72,5.69-1.94.03-3.89.03-5.83,0-3.56-.05-5.76-2.22-5.78-5.76-.03-6.15-.03-12.29,0-18.44.02-3.71,2.21-5.87,5.9-5.88,2.85,0,5.7,0,8.56,0,1.74,0,2.79.92,2.77,2.38-.01,1.45-1.06,2.33-2.82,2.33-2.77,0-5.53.03-8.3-.01-.98-.01-1.41.3-1.39,1.34.05,2.16.02,4.32.02,6.65Zm0,4.74c0,2.4-.04,4.61.04,6.82.01.36.51.98.8.99,2.07.09,4.15.07,6.22,0,.27,0,.73-.52.74-.8.06-2.03.07-4.07,0-6.11-.01-.31-.51-.86-.8-.87-2.28-.07-4.56-.04-6.99-.04Z"/><path class="cls-1" d="m90.06,24.41c0,2.6.02,5.2,0,7.8-.04,4.22-2.82,7.11-7.02,7.25-1.42.05-2.86.05-4.27-.13-3.31-.41-5.86-3.19-5.9-6.54-.06-5.59-.07-11.17,0-16.76.05-3.63,3.04-6.53,6.67-6.63,1.25-.03,2.51-.03,3.76,0,3.7.09,6.65,2.98,6.74,6.7.07,2.77.01,5.54.01,8.31,0,0,0,0,.01,0Zm-12.51.08c0,2.6-.02,5.19,0,7.79.01,1.71.85,2.53,2.57,2.57.86.02,1.73.01,2.59,0,1.94-.02,2.75-.81,2.77-2.77.03-2.51,0-5.02,0-7.53,0-2.6.03-5.2-.02-7.79-.03-1.63-.82-2.41-2.38-2.47-.91-.03-1.81-.02-2.72-.01-2.07.02-2.82.76-2.83,2.81,0,2.47,0,4.93,0,7.4Z"/><path class="cls-1" d="m41.22,26.81c-3.38,0-6.57.01-9.76-.01-.51,0-1.06-.05-1.51-.25-1.07-.47-1.57-1.39-1.34-2.53.23-1.19,1.02-1.91,2.27-1.92,2.89-.03,5.79-.02,8.68-.02.46,0,.93,0,1.56,0,0-2.46.05-4.78-.06-7.1-.01-.31-.82-.82-1.27-.83-2.94-.08-5.88,0-8.81-.06-1.96-.03-3.13-2.03-2.03-3.53.42-.57,1.32-1.09,2.02-1.11,3.24-.11,6.48-.1,9.72-.03,2.82.06,5.14,2.4,5.17,5.32.07,6.45.06,12.9,0,19.35-.03,2.94-2.17,5.19-5.14,5.33-3.23.15-6.48.08-9.72.03-1.46-.02-2.44-1.06-2.45-2.34-.01-1.33,1.02-2.37,2.54-2.4,2.89-.05,5.79-.06,8.68,0,1.16.03,1.51-.41,1.47-1.52-.07-2.07-.02-4.14-.02-6.38Z"/><path class="cls-1" d="m97.35,0c3.54-.02,6.39,2.76,6.43,6.27.04,3.59-2.77,6.47-6.35,6.51-3.51.04-6.39-2.78-6.41-6.29C91,2.85,93.75.02,97.35,0Zm-1.61,6.38c-.02.87.77,1.71,1.64,1.65.93-.07,1.51-.61,1.62-1.55.1-.85-.71-1.69-1.57-1.72-.85-.03-1.66.75-1.68,1.62Z"/></g></svg>