<?xml version="1.0" encoding="UTF-8"?><svg id="Capa_2" xmlns="http://www.w3.org/2000/svg" viewBox="0 0 67.09 66.97"><defs><style>.cls-1{fill:#ffd403;}</style></defs><g id="Capa_1-2"><path class="cls-1" d="m0,35.06C0,33.88,0,32.7,0,31.52c.04-.19.1-.37.11-.56.38-5.22,1.86-10.11,4.61-14.55C11.03,6.27,20.19.74,32.14.06c6.61-.38,12.84,1.21,18.5,4.66,8.71,5.3,14.05,12.98,15.93,23.01.24,1.26.35,2.53.52,3.8v3.92c-.05.47-.11.94-.16,1.41-.8,7.18-3.54,13.52-8.38,18.9-5.17,5.75-11.59,9.34-19.23,10.69-1.26.22-2.54.35-3.81.52h-3.67c-.95-.11-1.91-.19-2.85-.32-4.77-.66-9.21-2.26-13.28-4.85-.42-.27-.78-.33-1.27-.17-3.83,1.25-7.67,2.46-11.51,3.69-.21.07-.42.13-.72.22,1.34-3.98,2.63-7.84,3.94-11.68.18-.52.15-.9-.18-1.37-2.81-4-4.62-8.41-5.45-13.22C.29,37.86.17,36.45,0,35.06Zm44.48,17.32c.01-.05.03-.1.04-.15.39-.02.79,0,1.17-.07.54-.09,1.08-.18,1.59-.36,4.73-1.65,6.35-3.92,6.48-8.3.02-.7-.25-1.15-.88-1.45-2.48-1.18-4.94-2.39-7.43-3.55-1.32-.61-2.07-.37-2.94.79-.65.87-1.29,1.76-1.96,2.62-1,1.27-1.74,1.45-3.24.84-5.52-2.25-9.64-6.09-12.72-11.12-.65-1.06-.62-1.46.19-2.39.64-.74,1.33-1.45,1.94-2.22.52-.65,1.03-1.37.65-2.27-1.18-2.83-2.37-5.66-3.6-8.47-.13-.3-.47-.65-.78-.72-1.77-.42-3.6-.53-5.07.67-3.27,2.66-4.29,6.24-3.67,10.3.33,2.18,1.2,4.19,2.36,6.05,2.58,4.12,5.61,7.87,9.22,11.15,4.1,3.74,8.92,6.13,14.2,7.66,1.46.42,2.97.66,4.45.99Z"/></g></svg>