<?xml version="1.0" encoding="UTF-8"?>
<svg id="Capa_2" xmlns="http://www.w3.org/2000/svg" viewBox="0 0 145.27 124.59"><defs><style>.cls-1{fill:#ffd602;}</style></defs><g id="Capa_1-2"><path class="cls-1" d="m0,118.54v-42.37C.03,46.1,24.4,21.73,54.47,21.7h29.23v-9.6C83.7,5.42,89.12,0,95.81,0c3.21,0,6.29,1.28,8.56,3.54l35.59,35.58c7.09,7.09,7.09,18.58,0,25.67l-35.59,35.58c-4.73,4.73-12.39,4.73-17.12,0-2.27-2.27-3.54-5.35-3.54-8.56v-9.6h-35.28c-20.05.02-36.29,16.27-36.31,36.31,0,3.34-2.71,6.05-6.05,6.05s-6.05-2.71-6.05-6.05ZM95.81,27.75c0,3.34-2.71,6.05-6.05,6.05h-35.28c-23.39.03-42.34,18.98-42.37,42.37v10.37c9.18-10.44,22.41-16.43,36.31-16.43h41.34c3.34,0,6.05,2.71,6.05,6.05v15.65l35.58-35.58c2.36-2.36,2.36-6.19,0-8.56L95.81,12.1v15.65Z"/></g></svg>