<?xml version="1.0" encoding="UTF-8"?>
<svg id="Capa_2" xmlns="http://www.w3.org/2000/svg" viewBox="0 0 754.86 702.59"><defs><style>.cls-1{fill:#ffd602;}</style></defs><g id="Capa_1-2"><path class="cls-1" d="m0,461.54c5.61-115.04,32.63-217.87,87.58-312.64,25.1-43.29,56.15-81.67,97.37-110.87C221.92,11.83,262.93-2.15,308.53.27c36.45,1.94,71.84,10.02,106.23,22.16,97.01,34.25,179.42,90.15,246.56,168.09,40.9,47.48,70.15,101.14,86.92,162.06,16.93,61.54.82,112.99-41.46,158.31-31.87,34.17-69.86,60.2-110.57,82.39-84.7,46.18-174.9,77.78-268.81,98.8-47.33,10.59-95.33,14.06-143.63,6.28-60.32-9.72-111.02-35.62-145.62-87.84-20.21-30.49-30.8-64.58-34.86-100.66-2.03-18.01-2.5-36.2-3.29-48.32Z"/></g></svg>