<?xml version="1.0" encoding="UTF-8"?><svg id="Capa_2" xmlns="http://www.w3.org/2000/svg" viewBox="0 0 125 125"><defs><style>.cls-1{fill:#036;}</style></defs><g id="Capa_1-2"><path class="cls-1" d="m66.26,125c4.58-.36,9.1-1.04,13.56-2.12.54-.13.51-.47.4-.82-.45-1.54-.77-3.15-1.43-4.6-3.87-8.48-13.46-12.63-22.23-9.52-6.68,2.37-10.65,7.2-11.98,14.18-.08.44-.02.64.47.76,5.63,1.41,11.35,2.08,17.14,2.12,1.35.01,2.7,0,4.05,0ZM92.42,7.18c-5.15,6.03-5.84,17.53,2.5,24.72,7.19,6.2,17.46,5.1,22.71.43-6.08-10.58-15.8-19.85-25.21-25.15ZM2.23,80.2c.19,0,.26,0,.34,0,4.86-.74,8.84-3.03,11.82-6.93,3.24-4.23,4.29-9.05,3.37-14.25-.77-4.4-3-8.01-6.49-10.81-2.47-1.98-5.3-3.17-8.42-3.69-.45-.08-.68.06-.75.53-.09.54-.27,1.06-.35,1.6-.57,3.8-1.38,7.6-1.61,11.42-.35,5.8-.09,11.61,1.05,17.34.32,1.6.69,3.19,1.04,4.78ZM62.37,18.07c.83-.07,1.66-.11,2.48-.22,7.85-1.04,14.01-7.01,15.37-14.84.11-.64-.08-.85-.7-.99C73.42.58,67.25-.12,60.97.02c-5.15.11-10.22.75-15.22,1.92-1.26.29-1.26.3-1.01,1.58,1.6,8.39,9.1,14.55,17.64,14.55Zm60.4,62.24c.1-.37.19-.61.24-.86.56-3.18,1.32-6.34,1.61-9.54.34-3.8.46-7.65.34-11.46-.14-4.45-.86-8.85-1.93-13.19-.17-.69-.42-.8-1.06-.68-1.92.34-3.73.96-5.44,1.88-7.87,4.25-11.28,13.17-8.69,21.24,2.31,7.19,7.47,11.22,14.94,12.61Zm-90.33,37.23c5.34-6.5,5.48-17.47-1.99-24.33-7.21-6.63-17.65-5.71-23.24-.87,6.28,10.51,14.67,18.9,25.23,25.2Zm.11-110.32c-.11.02-.17.02-.21.05-5.36,3.21-10.25,7.03-14.63,11.5-3.88,3.96-7.23,8.33-10.15,13.04-.36.58-.24.81.26,1.15,4.25,2.91,8.9,3.92,13.96,2.93,4.99-.97,8.88-3.64,11.63-7.87,2.96-4.55,3.6-9.52,2.2-14.74-.6-2.23-1.63-4.26-3.06-6.06Zm85.15,85.18c-5.6-4.85-16.34-5.89-23.68,1.29-7.2,7.06-6.64,17.85-1.54,23.9,10.52-6.28,18.93-14.68,25.22-25.19Zm-31.32-48.41c3.15,0,5.63-2.42,5.65-5.54.02-3.22-2.44-5.71-5.65-5.7-3.12,0-5.58,2.49-5.58,5.63,0,3.13,2.47,5.61,5.58,5.62Zm-47.88,47.89c3.12,0,5.63-2.51,5.62-5.59-.01-3.13-2.54-5.63-5.69-5.63-3.08,0-5.65,2.58-5.61,5.62.04,3.19,2.49,5.6,5.68,5.6Zm29.56,4.52c-.08-3.1-2.21-5.63-5.66-5.65-3.24-.02-5.61,2.43-5.61,5.61,0,3.25,2.37,5.59,5.65,5.65,3.08.05,5.64-2.54,5.62-5.61Zm-23.93-57.85c.06-3.12-2.39-5.74-5.56-5.76-2.99-.02-5.66,2.12-5.71,5.6-.05,2.93,2.08,5.6,5.55,5.67,3.26.07,5.61-2.42,5.72-5.51Zm18.26-4.38c3.13.03,5.61-2.39,5.67-5.53.06-3.13-2.5-5.7-5.69-5.7-3.05,0-5.67,2.59-5.6,5.64.09,3.4,2.65,5.61,5.61,5.6Zm-33.74,33.76c3.12,0,5.63-2.48,5.62-5.57-.01-3.17-2.49-5.65-5.66-5.64-3.09,0-5.71,2.55-5.64,5.6.09,3.65,2.96,5.73,5.67,5.62Zm67.81,0c3.16,0,5.61-2.43,5.61-5.57,0-3.15-2.5-5.65-5.65-5.64-3.14,0-5.62,2.53-5.6,5.69.02,3.12,2.48,5.53,5.65,5.53Zm-10.04,12.81c-3.16.01-5.65,2.53-5.62,5.68.03,3.09,2.56,5.56,5.68,5.56,3.07,0,5.61-2.54,5.62-5.62.01-3.12-2.52-5.63-5.68-5.62Z"/><path class="cls-1" d="m66.26,125c-1.35,0-2.7,0-4.05,0-5.8-.05-11.52-.71-17.14-2.12-.49-.12-.55-.32-.47-.76,1.33-6.98,5.29-11.81,11.98-14.18,8.76-3.11,18.36,1.04,22.23,9.52.66,1.45.98,3.06,1.43,4.6.1.35.13.69-.4.82-4.46,1.08-8.98,1.76-13.56,2.12Z"/><path class="cls-1" d="m92.42,7.18c9.41,5.3,19.13,14.57,25.21,25.15-5.25,4.67-15.51,5.77-22.71-.43-8.34-7.19-7.65-18.69-2.5-24.72Z"/><path class="cls-1" d="m2.23,80.2c-.35-1.59-.72-3.18-1.04-4.78C.05,69.69-.2,63.87.14,58.07c.23-3.83,1.04-7.62,1.61-11.42.08-.54.26-1.06.35-1.6.07-.47.3-.6.75-.53,3.12.52,5.95,1.72,8.42,3.69,3.49,2.79,5.72,6.41,6.49,10.81.91,5.2-.14,10.02-3.37,14.25-2.98,3.9-6.96,6.19-11.82,6.93-.07.01-.15,0-.34,0Z"/><path class="cls-1" d="m62.37,18.07c-8.54,0-16.03-6.16-17.64-14.55-.24-1.28-.25-1.28,1.01-1.58C50.75.77,55.82.13,60.97.02c6.28-.13,12.45.57,18.56,2,.62.14.81.35.7.99-1.36,7.83-7.52,13.79-15.37,14.84-.82.11-1.66.15-2.48.22Z"/><path class="cls-1" d="m122.77,80.31c-7.47-1.39-12.63-5.43-14.94-12.61-2.59-8.07.81-16.99,8.69-21.24,1.71-.92,3.52-1.54,5.44-1.88.64-.11.89,0,1.06.68,1.07,4.34,1.79,8.74,1.93,13.19.12,3.82,0,7.66-.34,11.46-.29,3.2-1.05,6.36-1.61,9.54-.04.25-.13.49-.24.86Z"/><path class="cls-1" d="m32.44,117.53c-10.56-6.3-18.95-14.69-25.23-25.2,5.59-4.84,16.02-5.76,23.24.87,7.47,6.86,7.33,17.83,1.99,24.33Z"/><path class="cls-1" d="m32.55,7.22c1.44,1.79,2.47,3.82,3.06,6.06,1.4,5.22.76,10.19-2.2,14.74-2.75,4.23-6.64,6.9-11.63,7.87-5.06.99-9.7-.03-13.96-2.93-.5-.34-.62-.57-.26-1.15,2.92-4.71,6.27-9.07,10.15-13.04,4.38-4.47,9.27-8.28,14.63-11.5.04-.03.1-.02.21-.05Z"/><path class="cls-1" d="m117.7,92.4c-6.29,10.52-14.69,18.91-25.22,25.19-5.1-6.06-5.66-16.85,1.54-23.9,7.33-7.19,18.07-6.14,23.68-1.29Z"/><path class="cls-1" d="m86.38,43.99c-3.11,0-5.58-2.49-5.58-5.62,0-3.13,2.46-5.62,5.58-5.63,3.21,0,5.67,2.48,5.65,5.7-.02,3.12-2.49,5.55-5.65,5.54Z"/><path class="cls-1" d="m38.5,91.88c-3.19,0-5.64-2.4-5.68-5.6-.04-3.05,2.53-5.62,5.61-5.62,3.15,0,5.68,2.5,5.69,5.63.01,3.08-2.5,5.58-5.62,5.59Z"/><path class="cls-1" d="m68.06,96.4c.02,3.07-2.54,5.66-5.62,5.61-3.28-.05-5.65-2.39-5.65-5.65,0-3.18,2.37-5.63,5.61-5.61,3.46.02,5.59,2.55,5.66,5.65Z"/><path class="cls-1" d="m44.13,38.56c-.11,3.08-2.46,5.58-5.72,5.51-3.47-.07-5.6-2.74-5.55-5.67.06-3.48,2.73-5.62,5.71-5.6,3.17.02,5.62,2.64,5.56,5.76Z"/><path class="cls-1" d="m62.39,34.18c-2.97.01-5.53-2.2-5.61-5.6-.08-3.05,2.54-5.64,5.6-5.64,3.19,0,5.75,2.57,5.69,5.7-.06,3.15-2.54,5.56-5.67,5.53Z"/><path class="cls-1" d="m28.65,67.94c-2.71.1-5.58-1.97-5.67-5.62-.07-3.04,2.54-5.59,5.64-5.6,3.16,0,5.65,2.48,5.66,5.64.01,3.09-2.5,5.58-5.62,5.57Z"/><path class="cls-1" d="m96.46,67.94c-3.17,0-5.63-2.41-5.65-5.53-.02-3.16,2.46-5.68,5.6-5.69,3.15,0,5.65,2.49,5.65,5.64,0,3.14-2.45,5.57-5.61,5.57Z"/><path class="cls-1" d="m86.42,80.75c3.16-.01,5.69,2.5,5.68,5.62-.01,3.08-2.55,5.61-5.62,5.62-3.11,0-5.64-2.47-5.68-5.56-.03-3.15,2.45-5.67,5.62-5.68Z"/></g></svg>