<?xml version="1.0" encoding="UTF-8"?><svg id="Capa_2" xmlns="http://www.w3.org/2000/svg" viewBox="0 0 125 125"><defs><style>.cls-1{fill:#036;}</style></defs><g id="Capa_1-2"><path class="cls-1" d="m98.17,75.31h-34.2v-24.17h59.58c.22.99.46,2.01.65,3.04,1.11,5.86.94,11.75.25,17.64-.78,6.58-2.49,12.92-5.25,18.98-3.55,7.79-8.58,14.51-15.21,20.07-8.18,6.86-17.63,11.13-28.2,13.06-7.79,1.42-15.59,1.43-23.4.06-8.31-1.45-16-4.42-23.1-8.87-7.08-4.44-13.02-10.03-17.83-16.77-3.81-5.34-6.72-11.1-8.66-17.32C.53,73.74-.33,66.29.12,58.68c.41-6.97,1.96-13.67,4.67-20.11,2.93-6.97,7.04-13.22,12.31-18.73,4.65-4.87,9.95-8.93,15.92-12.14,5.85-3.14,12.07-5.33,18.63-6.56,7.45-1.39,14.92-1.52,22.41-.36,9.03,1.4,17.34,4.62,24.94,9.56,2.46,1.6,4.77,3.41,7.12,5.11-6.31,6.17-12.5,12.21-18.69,18.26-1.24-.84-2.53-1.8-3.9-2.63-6.96-4.2-14.52-5.99-22.69-5.35-8.08.64-15.24,3.51-21.37,8.66-7.69,6.44-12.17,14.64-13.06,24.52-1.13,12.43,3.11,22.93,12.61,31.28,6.41,5.64,14.05,8.62,22.68,9.12,5.79.34,11.46-.31,16.91-2.26,10.24-3.66,16.88-10.56,19.44-21.03.05-.19.07-.39.13-.71Z"/></g></svg>