<?xml version="1.0" encoding="UTF-8"?><svg id="Capa_2" xmlns="http://www.w3.org/2000/svg" viewBox="0 0 125 125"><defs><style>.cls-1{fill:#036;}</style></defs><g id="Capa_1-2"><path class="cls-1" d="m4.46,101.34c25.27,2.92,50.53,5.84,76.03,8.78V19.08c-5.38,1.06-10.55,2.06-15.72,3.1-11.71,2.34-23.4,4.75-35.14,7.01-2.13.41-2.69,1.19-2.68,2.93.06,18.96,0,37.92.1,56.88,0,1.89-.65,2.77-2.79,3.44-7.97,2.48-15.85,5.15-24.06,7.84-.06-.92-.13-1.6-.13-2.27C.06,74.42.08,50.85,0,27.27c0-1.71.58-2.48,2.49-3.07C27.96,16.24,53.39,8.2,78.85.24c1.02-.32,2.37-.31,3.44-.06,13.36,3.15,26.69,6.41,40.05,9.56,1.95.46,2.66,1.15,2.65,2.95-.08,33.38-.08,66.75,0,100.13,0,1.86-.79,2.39-2.72,2.83-13.31,3.01-26.59,6.15-39.9,9.17-1.15.26-2.59.23-3.7-.11-24.31-7.47-48.59-15.01-72.88-22.53-.47-.15-.93-.33-1.39-.49l.05-.35Z"/></g></svg>