<?xml version="1.0" encoding="UTF-8"?><svg id="Capa_2" xmlns="http://www.w3.org/2000/svg" viewBox="0 0 125 125"><defs><style>.cls-1{fill:#036;}</style></defs><g id="Capa_1-2"><path class="cls-1" d="m72.78,125c-.52-.09-1.06-.17-1.6-.27-1.2-.22-2.39-.47-3.58-.69-1.91-.34-3.82-.67-5.73-1.01-1.91-.33-3.82-.66-5.73-.99-1.87-.33-3.74-.66-5.61-.99-1.93-.34-3.86-.68-5.79-1.02-1.89-.33-3.78-.66-5.67-.99-1.95-.34-3.9-.68-5.85-1.02-1.85-.32-3.7-.65-5.55-.97-1.95-.34-3.9-.69-5.85-1.03-1.83-.32-3.66-.62-5.49-.94-1.77-.31-3.53-.63-5.3-.95-1.89-.33-3.78-.67-5.66-.99-1.54-.27-3.09-.52-4.63-.79-.24-.04-.48-.11-.75-.18V12.8c.44-.1.87-.21,1.31-.3,1.08-.2,2.15-.38,3.23-.58,1.95-.35,3.9-.71,5.85-1.05,1.81-.32,3.62-.61,5.43-.93,1.99-.35,3.98-.72,5.97-1.07,1.52-.27,3.05-.52,4.57-.78,1.69-.29,3.38-.58,5.06-.88,2.5-.44,5-.9,7.49-1.34,1.91-.34,3.82-.67,5.73-1,1.69-.3,3.37-.59,5.06-.89,1.91-.33,3.82-.67,5.73-1,1.93-.34,3.86-.67,5.79-1,1.91-.33,3.82-.67,5.73-1.01,1.89-.33,3.78-.66,5.67-.98.06,0,.12.01.17.02.03.02.04.04.06.05.01.01.03.03.04.05.02.17.04.33.04.5,0,41.35,0,82.71,0,124.06,0,.06-.02.12-.04.18-.01.04-.05.07-.11.14Zm-32.09-40.21c.02-.36.05-.68.05-1.01,0-11.76,0-23.52,0-35.28,0-.3.03-.61.05-.98,4.21-.2,8.35-.41,12.53-.61.03-.28.08-.5.08-.73,0-2.4,0-4.79,0-7.19,0-.22-.05-.44-.08-.69-.31,0-.56-.01-.8,0-1.11.08-2.22.17-3.34.24-1.61.1-3.22.16-4.83.26-1.24.07-2.47.16-3.71.25-1.94.13-3.88.26-5.81.37-1.2.07-2.4.09-3.6.15-.81.04-1.61.08-2.41.13-1.73.12-3.46.24-5.19.36-.85.06-1.69.09-2.54.15-.37.02-.74.07-1.11.1-.42.04-.48.1-.52.54,0,.08,0,.17,0,.25,0,2.19,0,4.38,0,6.57,0,.22.04.44.07.67.16.02.26.04.36.03,1.53-.07,3.06-.15,4.59-.22.37-.02.75,0,1.12-.02,1.63-.07,3.26-.15,4.89-.23.41-.02.82-.05,1.23-.09.25-.02.4.06.41.33,0,.23,0,.46,0,.69,0,11.45,0,22.9,0,34.35,0,.21,0,.42,0,.63.02.52.1.61.62.64,1.24.05,2.48.08,3.72.15.99.05,1.98.15,2.96.21.39.02.78,0,1.24,0Z"/><path class="cls-1" d="m77.35,101.32v-50.05c.51-.14,20.24-.16,20.9-.02.02.2.05.42.05.64,0,13.03,0,26.07,0,39.1,0,2.21-.64,4.25-1.94,6.02-.98,1.32-2.23,2.36-3.69,3.17-1.92,1.06-3.99,1.62-6.12,1.88-1.61.19-3.25.28-4.89.09-.8-.09-1.61-.08-2.39-.29-.63-.17-1.26-.36-1.92-.55Z"/><path class="cls-1" d="m102.66,58.39c.54-.15,21.79-.14,22.33.03v.59c0,7.49,0,14.97,0,22.46,0,1.74-.63,3.3-1.56,4.74-.66,1.02-1.51,1.88-2.47,2.6-1.5,1.13-3.16,1.97-4.98,2.44-1.18.3-2.37.53-3.56.78-.98.2-1.97.22-2.96.22-2.09,0-4.19,0-6.28,0-.16,0-.33-.02-.48-.03-.15-.48-.17-33.21-.03-33.82Z"/><path class="cls-1" d="m124.91,39.72c.08,6.09-5.01,11.29-11.19,11.24-6.19-.05-11.14-5.07-11.1-11.3.04-6.23,4.79-11.21,11.16-11.25,6.25-.03,11.16,5.06,11.13,11.31Z"/><path class="cls-1" d="m77.3,32.57c0-2.69,0-5.38,0-8.07,0-.41.08-.67.48-.89.56-.3,1.06-.72,1.59-1.08,1.12-.74,2.4-.96,3.69-1.17,1.57-.26,3.08.05,4.59.42.28.07.55.18.81.3,1.47.65,2.82,1.5,3.91,2.69.9.98,1.7,2.04,2.15,3.32.29.82.62,1.64.77,2.49.36,2.04.21,4.06-.55,6.01-.53,1.38-1.28,2.61-2.28,3.68-1.44,1.55-3.19,2.66-5.23,3.19-1.69.44-3.42.46-5.16.13-1.01-.2-1.95-.53-2.82-1.07-.6-.37-1.17-.77-1.75-1.17-.1-.07-.16-.24-.18-.37-.03-.18-.01-.37-.01-.56,0-2.63,0-5.25,0-7.88Z"/></g></svg>