<?xml version="1.0" encoding="UTF-8"?><svg id="Capa_2" xmlns="http://www.w3.org/2000/svg" viewBox="0 0 125 125"><defs><style>.cls-1{fill:#036;}</style></defs><g id="Capa_1-2"><g id="_5c0BuV"><path class="cls-1" d="m59.1,0C61.32,0,63.54,0,65.76,0c.2.04.4.09.6.1,4.27.17,8.45.92,12.57,2.03,6.16,1.66,11.92,4.25,17.3,7.68,5.79,3.7,10.82,8.25,15.11,13.61,3.86,4.82,6.92,10.1,9.23,15.83,1.96,4.88,3.27,9.92,3.95,15.12.2,1.52.32,3.06.47,4.58v7.07c-.25,1.9-.35,3.82-.63,5.73-.86,5.79-2.49,11.36-4.93,16.67-2.75,6-6.34,11.48-10.84,16.34-4.43,4.78-9.44,8.83-15.11,12.06-7.07,4.03-14.63,6.58-22.68,7.67-1.59.22-3.19.34-4.79.5h-7.07c-.2-.03-.4-.08-.6-.09-3.56-.2-7.06-.74-10.52-1.58-6.6-1.61-12.78-4.22-18.55-7.83-6.2-3.88-11.54-8.71-16.05-14.46-4.07-5.18-7.23-10.87-9.5-17.07-1.68-4.61-2.83-9.35-3.37-14.23C.24,68.41.13,67.09,0,65.76c0-2.22,0-4.44,0-6.66.04-.22.1-.44.11-.67.15-3.54.71-7.02,1.54-10.46,1.51-6.32,3.96-12.26,7.32-17.82,3.16-5.23,6.99-9.91,11.52-14,5.23-4.73,11.09-8.48,17.59-11.24,5.54-2.36,11.29-3.86,17.26-4.55C56.58.22,57.84.12,59.1,0Zm-2.59,80.3c6.84,0,13.67,0,20.51,0,.88,0,.94-.06.94-.92,0-9.85.02-19.7,0-29.54,0-4.32-3.68-7.98-8-7.98-13.52-.01-27.03,0-40.55,0-.95,0-.99.04-.99,1,0,9.64.02,19.29,0,28.93-.01,4.96,3.88,8.61,8.54,8.54,6.52-.1,13.04-.03,19.56-.03Zm43.48-19.22c0-6.02,0-12.05,0-18.07,0-.23,0-.45-.01-.68-.01-.23-.12-.34-.35-.2-.16.09-.31.19-.46.29-4.97,3.32-9.94,6.64-14.92,9.94-.52.35-.7.74-.7,1.34.02,4.91.02,9.83,0,14.74,0,.64.21,1.03.75,1.38,3.57,2.36,7.12,4.75,10.68,7.12,1.49.99,2.99,1.97,4.47,2.97.4.27.57.2.55-.28,0-.2,0-.41,0-.61,0-5.98,0-11.96,0-17.93Z"/></g></g></svg>