<?xml version="1.0" encoding="UTF-8"?><svg id="Capa_2" xmlns="http://www.w3.org/2000/svg" xmlns:xlink="http://www.w3.org/1999/xlink" viewBox="0 0 115.31 126.92"><defs><style>.cls-1{fill:url(#_Новый_образец_градиента_165);}.cls-1,.cls-2,.cls-3,.cls-4,.cls-5{stroke-width:0px;}.cls-2{fill:url(#_Безымянный_градиент_5);}.cls-3{fill:url(#_Новый_образец_градиента_165-2);}.cls-6{fill:#fff;font-family:JosefinSansRoman-Bold, 'Josefin Sans';font-size:8.62px;font-variation-settings:'wght' 700;font-weight:700;}.cls-7{fill:none;stroke:#693c14;stroke-linecap:round;stroke-miterlimit:10;stroke-width:2.95px;}.cls-8{font-family:JosefinSansRoman-Regular, 'Josefin Sans';font-size:6.02px;font-variation-settings:'wght' 400;}.cls-8,.cls-5{fill:#693c14;}.cls-4{fill:#c32230;}</style><linearGradient id="_Новый_образец_градиента_165" x1="71.86" y1="14.2" x2="38.26" y2="144.43" gradientUnits="userSpaceOnUse"><stop offset="0" stop-color="#fed648"/><stop offset=".07" stop-color="#a57819"/><stop offset=".19" stop-color="#fed648"/><stop offset=".4" stop-color="#fed648"/><stop offset=".56" stop-color="#fbf4af"/><stop offset=".68" stop-color="#fed648"/><stop offset=".75" stop-color="#a57819"/><stop offset=".88" stop-color="#fed648"/><stop offset=".97" stop-color="#fbf4af"/><stop offset="1" stop-color="#fed648"/></linearGradient><linearGradient id="_Новый_образец_градиента_165-2" x1="78.1" y1="-5.08" x2="38.85" y2="137.64" xlink:href="#_Новый_образец_градиента_165"/><radialGradient id="_Безымянный_градиент_5" cx="-698.49" cy="2704.82" fx="-698.49" fy="2704.82" r="698.21" gradientTransform="translate(1412.09 -706.04) rotate(45) scale(.48)" gradientUnits="userSpaceOnUse"><stop offset="0" stop-color="#fed648"/><stop offset=".07" stop-color="#a57819"/><stop offset=".19" stop-color="#fed648"/><stop offset=".4" stop-color="#fed648"/><stop offset=".56" stop-color="#fbf4af"/><stop offset=".68" stop-color="#fed648"/><stop offset=".75" stop-color="#a57819"/><stop offset=".88" stop-color="#fed648"/><stop offset=".97" stop-color="#fbf4af"/><stop offset="1" stop-color="#fed648"/></radialGradient></defs><g id="Capa_1-2"><path class="cls-1" d="m57.65,126.92C25.86,126.92,0,101.06,0,69.27S25.86,11.62,57.65,11.62s57.65,25.86,57.65,57.65-25.86,57.65-57.65,57.65Zm0-107.18c-27.31,0-49.52,22.22-49.52,49.52s22.22,49.52,49.52,49.52,49.52-22.22,49.52-49.52-22.22-49.52-49.52-49.52Z"/><path class="cls-3" d="m57.65,12.8C26.52,12.8,1.19,38.13,1.19,69.27s25.33,56.46,56.46,56.46,56.47-25.33,56.47-56.46S88.79,12.8,57.65,12.8Zm0,107.18c-27.96,0-50.71-22.75-50.71-50.71S29.69,18.56,57.65,18.56s50.71,22.75,50.71,50.71-22.75,50.71-50.71,50.71Z"/><circle class="cls-4" cx="57.61" cy="69.35" r="49.68" transform="translate(-32.34 75.49) rotate(-54.19)"/><circle class="cls-4" cx="57.61" cy="69.35" r="47.69" transform="translate(-32.16 61.05) rotate(-45)"/><circle class="cls-4" cx="57.61" cy="69.35" r="44.02" transform="translate(-22.35 27.71) rotate(-22.78)"/><text class="cls-6" transform="translate(28.8 38.52) rotate(-38.58) scale(1.01 1)"><tspan x="0" y="0">A</tspan></text><text class="cls-6" transform="translate(34.08 34.37) rotate(-29.41) scale(1.01 1)"><tspan x="0" y="0">C</tspan></text><text class="cls-6" transform="translate(40.36 30.94) rotate(-19.65) scale(1.01 1)"><tspan x="0" y="0">R</tspan></text><text class="cls-6" transform="translate(47.04 28.66) rotate(-10.11) scale(1.01 1)"><tspan x="0" y="0">E</tspan></text><text class="cls-6" transform="translate(53.81 27.51) rotate(-.13) scale(1.01 1)"><tspan x="0" y="0">D</tspan></text><text class="cls-6" transform="translate(61.62 27.7) rotate(7.97) scale(1.01 1)"><tspan x="0" y="0">I</tspan></text><text class="cls-6" transform="translate(65.64 28.27) rotate(15.07) scale(1.01 1)"><tspan x="0" y="0">T</tspan></text><text class="cls-6" transform="translate(71.11 29.75) rotate(23.63) scale(1.01 1)"><tspan x="0" y="0">A</tspan></text><text class="cls-6" transform="translate(77.63 32.67) rotate(34.12) scale(1.01 1)"><tspan x="0" y="0">D</tspan></text><text class="cls-6" transform="translate(83.66 36.86) rotate(43.97) scale(1.01 1)"><tspan x="0" y="0">A</tspan></text><circle class="cls-2" cx="57.84" cy="69.58" r="40.23" transform="translate(-32.26 61.28) rotate(-45)"/><text class="cls-8" transform="translate(41.59 87.35)"><tspan x="0" y="0">Acreditación</tspan></text><text class="cls-8" transform="translate(40.48 92.87)"><tspan x="0" y="0">Internacional</tspan></text><polyline class="cls-7" points="29.49 94.25 65.91 50.4 65.91 77.9 74.83 77.9 74.83 39.25"/><circle class="cls-5" cx="60.86" cy="76.84" r="2.04"/></g></svg>