<?xml version="1.0" encoding="UTF-8"?><svg id="Capa_2" xmlns="http://www.w3.org/2000/svg" viewBox="0 0 151.43 191.44"><defs><style>.cls-1,.cls-2{fill:#036;}.cls-3{fill:#fbcf31;}.cls-2{font-family:Urbanist-BlackItalic, Urbanist;font-size:80.69px;font-style:italic;font-variation-settings:'wght' 900;font-weight:800;}</style></defs><g id="Capa_1-2"><path class="cls-3" d="m151.43,75.71c0,41.82-33.9,75.71-75.71,75.71C33.9,151.43,0,117.53,0,75.71S33.9,0,75.71,0c41.82,0,75.71,33.9,75.71,75.71Z"/><path class="cls-3" d="m37.54,191.44c-3.18-1.33-4.32-3.71-4.29-7.14.09-10.5-.05-21-.1-31.49,0-.63,0-1.25-.01-2.23,13.46,7.3,27.63,10.99,42.74,10.91,15.06-.08,29.16-3.86,42.53-11.29.05.87.11,1.52.11,2.18.06,10.44,0,20.87.21,31.3.07,3.49-.96,5.98-4.22,7.37-.88,0-1.76,0-2.64.01-.73-.35-1.45-.71-2.18-1.04-10.78-4.78-21.56-9.57-32.36-14.31-.67-.29-1.65-.49-2.25-.22-11.65,5.26-23.27,10.59-34.9,15.91-.88,0-1.76,0-2.64.01Z"/><path class="cls-1" d="m35.66,89.36h2.62l2.42,10.85h-2.47l-.38-1.71h-4.33l-.86,1.71h-2.47l5.46-10.85Zm-.95,6.82h2.62l-.81-3.6-1.81,3.6Z"/><path class="cls-1" d="m46.25,97.67l1.93,1.13c-.42.49-.92.88-1.5,1.17s-1.19.44-1.82.44c-.71,0-1.34-.18-1.87-.55-.54-.37-.93-.86-1.19-1.48-.26-.62-.34-1.3-.24-2.05.08-.57.25-1.1.52-1.59.27-.49.61-.93,1.02-1.3.41-.37.86-.67,1.36-.88.5-.21,1.01-.32,1.55-.32.64,0,1.2.15,1.7.44s.89.69,1.17,1.19l-2.26,1.13c-.12-.14-.26-.25-.42-.32-.16-.07-.34-.11-.52-.11-.29,0-.57.08-.83.25-.26.17-.47.38-.64.65-.17.27-.28.56-.33.87-.04.31-.01.59.08.86.1.27.25.48.46.65.21.17.47.25.76.25.19,0,.37-.04.55-.11.18-.07.36-.18.52-.31Z"/><path class="cls-1" d="m49.39,100.22l1.08-7.75h2.33l-.06.49c.29-.22.61-.4.96-.52.35-.12.71-.19,1.07-.19.28,0,.56.04.84.12l-1.25,2.36c-.17-.08-.35-.12-.54-.12-.24,0-.47.06-.69.17s-.39.27-.54.47c-.14.2-.23.42-.27.66l-.61,4.3h-2.33Z"/><path class="cls-1" d="m58.34,100.42c-.71,0-1.34-.18-1.87-.55-.54-.37-.93-.86-1.19-1.48s-.34-1.31-.24-2.05c.08-.56.25-1.09.52-1.59.27-.49.61-.93,1.02-1.3.41-.37.86-.67,1.36-.88.5-.21,1.01-.32,1.55-.32.62,0,1.17.14,1.64.41.48.27.86.64,1.15,1.1.29.46.47.98.54,1.56.06.58,0,1.18-.21,1.79h-5.17c.05.18.12.35.22.49.1.15.23.26.4.35.17.09.37.13.61.14.23,0,.45-.04.66-.15.21-.1.4-.24.56-.42l2.29.55c-.41.69-.96,1.25-1.64,1.69-.69.44-1.42.66-2.19.66Zm-.75-5.02h2.91c-.04-.22-.12-.42-.24-.59-.12-.17-.27-.3-.45-.4-.18-.1-.38-.15-.6-.15s-.43.05-.64.15c-.21.1-.39.23-.56.4-.17.17-.31.37-.42.59Z"/><path class="cls-1" d="m70.7,88.59h2.33l-1.63,11.63h-2.33l.1-.71c-.28.27-.59.49-.95.66-.35.17-.74.26-1.16.26-.56,0-1.08-.11-1.54-.32-.46-.21-.85-.51-1.18-.88-.32-.37-.55-.81-.69-1.3-.14-.49-.17-1.02-.1-1.58.08-.56.26-1.09.54-1.58.28-.49.64-.92,1.06-1.3.43-.37.9-.67,1.42-.88.52-.21,1.07-.32,1.63-.32.42,0,.78.08,1.08.25.3.17.55.39.76.66l.64-4.59Zm-3.29,9.6c.32,0,.62-.08.91-.25.29-.17.53-.39.72-.67.2-.28.32-.59.36-.93.05-.34.01-.65-.1-.93-.12-.28-.29-.5-.54-.67-.24-.17-.52-.25-.84-.25s-.62.08-.91.25c-.28.17-.52.39-.71.67-.19.28-.31.59-.36.93s-.01.65.1.93c.11.28.29.5.53.67.24.17.51.25.83.25Z"/><path class="cls-1" d="m74.35,92.46h2.33l-1.08,7.75h-2.33l1.09-7.75Zm1.29-.81c-.34,0-.6-.11-.8-.33-.2-.22-.27-.5-.22-.83.05-.33.2-.6.46-.83.26-.22.55-.34.88-.34s.59.11.78.34c.19.22.27.5.22.83-.05.33-.2.61-.45.83-.25.22-.54.33-.87.33Z"/><path class="cls-1" d="m82.47,94.79h-1.32l-.76,5.43h-2.33l.76-5.43h-1.01l.33-2.33h1.01l.34-2.43h2.33l-.34,2.43h1.32l-.33,2.33Z"/><path class="cls-1" d="m89.6,92.46h2.33l-1.09,7.75h-2.33l-.02-.7c-.23.27-.51.49-.82.65-.31.17-.66.25-1.05.25-.58,0-1.11-.11-1.58-.33s-.87-.52-1.2-.9c-.33-.39-.56-.83-.71-1.33-.14-.5-.18-1.05-.09-1.62.08-.55.25-1.07.52-1.55.27-.48.61-.9,1.02-1.27s.87-.65,1.38-.86c.51-.21,1.04-.31,1.59-.31.44,0,.84.09,1.17.28.34.18.63.41.88.69v-.74Zm-2.73,5.72c.32,0,.62-.08.91-.25.29-.17.53-.39.72-.67.2-.28.32-.59.36-.93.05-.34.01-.65-.1-.93-.12-.28-.29-.5-.54-.67-.24-.17-.52-.25-.84-.25s-.62.08-.91.25c-.28.17-.52.39-.71.67-.19.28-.31.59-.36.93s-.01.65.1.93c.11.28.29.5.53.67.24.17.51.25.83.25Z"/><path class="cls-1" d="m97.02,97.67l1.93,1.13c-.42.49-.92.88-1.5,1.17s-1.19.44-1.82.44c-.71,0-1.34-.18-1.87-.55-.54-.37-.93-.86-1.19-1.48-.26-.62-.34-1.3-.24-2.05.08-.57.25-1.1.52-1.59.27-.49.61-.93,1.02-1.3.41-.37.86-.67,1.36-.88.5-.21,1.01-.32,1.55-.32.64,0,1.2.15,1.7.44s.89.69,1.17,1.19l-2.26,1.13c-.12-.14-.26-.25-.42-.32-.16-.07-.34-.11-.52-.11-.29,0-.57.08-.83.25-.26.17-.47.38-.64.65-.17.27-.28.56-.33.87-.04.31-.01.59.08.86.1.27.25.48.46.65.21.17.47.25.76.25.19,0,.37-.04.55-.11.18-.07.36-.18.52-.31Z"/><path class="cls-1" d="m100.85,92.46h2.33l-1.08,7.75h-2.33s1.09-7.75,1.09-7.75Zm1.29-.81c-.34,0-.6-.11-.8-.33-.2-.22-.27-.5-.22-.83.05-.33.2-.6.46-.83.26-.22.55-.34.88-.34s.59.11.78.34c.19.22.27.5.22.83-.05.33-.2.61-.45.83-.25.22-.54.33-.87.33Z"/><path class="cls-1" d="m107.1,100.42c-.71,0-1.34-.18-1.87-.55-.54-.37-.93-.86-1.19-1.48-.26-.62-.34-1.3-.24-2.05.08-.57.25-1.1.52-1.59.27-.49.61-.93,1.02-1.3.41-.37.86-.67,1.36-.88.5-.21,1.01-.32,1.55-.32.71,0,1.34.18,1.87.55.54.37.93.86,1.2,1.48.26.62.34,1.31.23,2.06-.08.56-.25,1.09-.52,1.58-.27.49-.61.92-1.02,1.3-.41.37-.86.67-1.36.88-.5.21-1.01.32-1.55.32Zm.33-2.33c.29,0,.57-.08.83-.24.26-.16.47-.37.65-.64.18-.27.28-.56.33-.87.05-.33.02-.62-.09-.89-.1-.27-.26-.48-.48-.64-.21-.16-.46-.24-.74-.24s-.56.08-.82.24c-.26.16-.47.38-.65.65-.17.27-.28.56-.33.88-.05.33-.02.63.09.89.11.26.27.47.48.63.21.16.46.23.74.23Zm.29-6.48l.93-2.23h2.33l-1.71,2.23h-1.55Z"/><path class="cls-1" d="m120.14,95.26l-.69,4.95h-2.33l.61-4.3c.04-.24,0-.46-.09-.66-.09-.2-.23-.36-.41-.47s-.39-.17-.64-.17-.47.06-.69.17-.39.27-.54.47c-.14.2-.23.42-.27.66l-.61,4.3h-2.33l1.08-7.75h2.33l-.06.49c.29-.22.61-.4.96-.52.35-.12.71-.19,1.07-.19.56,0,1.05.14,1.46.41.42.27.73.63.94,1.09.21.45.27.96.19,1.52Z"/><path class="cls-1" d="m31.04,117.02l1.52-10.85h2.33l-1.52,10.85h-2.33Z"/><path class="cls-1" d="m43.43,112.06l-.69,4.95h-2.33l.61-4.3c.04-.24,0-.46-.09-.66-.09-.2-.23-.36-.41-.47s-.39-.17-.64-.17-.47.06-.69.17-.39.27-.54.47c-.14.2-.23.42-.27.66l-.61,4.3h-2.33l1.08-7.75h2.33l-.06.49c.29-.22.61-.4.96-.52.35-.12.71-.19,1.07-.19.56,0,1.05.14,1.46.41.42.27.73.63.94,1.09.21.45.27.96.19,1.52Z"/><path class="cls-1" d="m49.31,111.59h-1.32l-.76,5.43h-2.33l.76-5.43h-1.01l.33-2.33h1.01l.34-2.43h2.33l-.34,2.43h1.32l-.33,2.33Z"/><path class="cls-1" d="m53.18,117.22c-.71,0-1.34-.18-1.87-.55-.54-.37-.93-.86-1.19-1.48s-.34-1.31-.24-2.05c.08-.56.25-1.09.52-1.59.27-.49.61-.93,1.02-1.3.41-.37.86-.67,1.36-.88.5-.21,1.01-.32,1.55-.32.62,0,1.17.14,1.64.41.48.27.86.64,1.15,1.1.29.46.47.98.54,1.56.06.58,0,1.18-.21,1.79h-5.17c.05.18.12.35.22.49.1.15.23.26.4.35.17.09.37.13.61.14.23,0,.45-.04.66-.15.21-.1.4-.24.56-.42l2.29.55c-.41.69-.96,1.25-1.64,1.69-.69.44-1.42.66-2.19.66Zm-.75-5.02h2.91c-.04-.22-.12-.42-.24-.59-.12-.17-.27-.3-.45-.4-.18-.1-.38-.15-.6-.15s-.43.05-.64.15c-.21.1-.39.23-.56.4-.17.17-.31.37-.42.59Z"/><path class="cls-1" d="m58.25,117.02l1.08-7.75h2.33l-.06.49c.29-.22.61-.4.96-.52.35-.12.71-.19,1.07-.19.28,0,.56.04.84.12l-1.25,2.36c-.17-.08-.35-.12-.54-.12-.24,0-.47.06-.69.17s-.39.27-.54.47c-.14.2-.23.42-.27.66l-.61,4.3h-2.33Z"/><path class="cls-1" d="m72.19,112.06l-.69,4.95h-2.33l.61-4.3c.04-.24,0-.46-.09-.66-.09-.2-.23-.36-.41-.47s-.39-.17-.64-.17-.47.06-.69.17-.39.27-.54.47c-.14.2-.23.42-.27.66l-.61,4.3h-2.33l1.08-7.75h2.33l-.06.49c.29-.22.61-.4.96-.52.35-.12.71-.19,1.07-.19.56,0,1.05.14,1.46.41.42.27.73.63.94,1.09.21.45.27.96.19,1.52Z"/><path class="cls-1" d="m79.54,109.26h2.33l-1.09,7.75h-2.33l-.02-.7c-.23.27-.51.49-.82.65-.31.17-.66.25-1.05.25-.58,0-1.11-.11-1.58-.33s-.87-.52-1.2-.9c-.33-.39-.56-.83-.71-1.33-.14-.5-.18-1.05-.09-1.62.08-.55.25-1.07.52-1.55.27-.48.61-.9,1.02-1.27s.87-.65,1.38-.86c.51-.21,1.04-.31,1.59-.31.44,0,.84.09,1.17.28.34.18.63.41.88.69v-.74Zm-2.73,5.72c.32,0,.62-.08.91-.25.29-.17.53-.39.72-.67.2-.28.32-.59.36-.93.05-.34.01-.65-.1-.93-.12-.28-.29-.5-.54-.67-.24-.17-.52-.25-.84-.25s-.62.08-.91.25c-.28.17-.52.39-.71.67-.19.28-.31.59-.36.93s-.01.65.1.93c.11.28.29.5.53.67.24.17.51.25.83.25Z"/><path class="cls-1" d="m86.96,114.47l1.93,1.13c-.42.49-.92.88-1.5,1.17s-1.19.44-1.82.44c-.71,0-1.34-.18-1.87-.55-.54-.37-.93-.86-1.19-1.48-.26-.62-.34-1.3-.24-2.05.08-.57.25-1.1.52-1.59.27-.49.61-.93,1.02-1.3.41-.37.86-.67,1.36-.88.5-.21,1.01-.32,1.55-.32.64,0,1.2.15,1.7.44s.89.69,1.17,1.19l-2.26,1.13c-.12-.14-.26-.25-.42-.32-.16-.07-.34-.11-.52-.11-.29,0-.57.08-.83.25-.26.17-.47.38-.64.65-.17.27-.28.56-.33.87-.04.31-.01.59.08.86.1.27.25.48.46.65.21.17.47.25.76.25.19,0,.37-.04.55-.11.18-.07.36-.18.52-.31Z"/><path class="cls-1" d="m90.79,109.26h2.33l-1.08,7.75h-2.33l1.09-7.75Zm1.29-.81c-.34,0-.6-.11-.8-.33-.2-.22-.27-.5-.22-.83.05-.33.2-.6.46-.83.26-.22.55-.34.88-.34s.59.11.78.34c.19.22.27.5.22.83-.05.33-.2.61-.45.83-.25.22-.54.33-.87.33Z"/><path class="cls-1" d="m97.04,117.22c-.71,0-1.34-.18-1.87-.55-.54-.37-.93-.86-1.19-1.48-.26-.62-.34-1.3-.24-2.05.08-.57.25-1.1.52-1.59.27-.49.61-.93,1.02-1.3.41-.37.86-.67,1.36-.88.5-.21,1.01-.32,1.55-.32.71,0,1.34.18,1.87.55.54.37.93.86,1.2,1.48.26.62.34,1.31.23,2.06-.08.56-.25,1.09-.52,1.58-.27.49-.61.92-1.02,1.3-.41.37-.86.67-1.36.88-.5.21-1.01.32-1.55.32Zm.33-2.33c.29,0,.57-.08.83-.24.26-.16.47-.37.65-.64.18-.27.28-.56.33-.87.05-.33.02-.62-.09-.89-.1-.27-.26-.48-.48-.64-.21-.16-.46-.24-.74-.24s-.56.08-.82.24c-.26.16-.47.38-.65.65-.17.27-.28.56-.33.88-.05.33-.02.63.09.89.11.26.27.47.48.63.21.16.46.23.74.23Z"/><path class="cls-1" d="m110.08,112.06l-.69,4.95h-2.33l.61-4.3c.04-.24,0-.46-.09-.66-.09-.2-.23-.36-.41-.47s-.39-.17-.64-.17-.47.06-.69.17-.39.27-.54.47c-.14.2-.23.42-.27.66l-.61,4.3h-2.33l1.08-7.75h2.33l-.06.49c.29-.22.61-.4.96-.52.35-.12.71-.19,1.07-.19.56,0,1.05.14,1.46.41.42.27.73.63.94,1.09.21.45.27.96.19,1.52Z"/><path class="cls-1" d="m117.43,109.26h2.33l-1.09,7.75h-2.33l-.02-.7c-.23.27-.51.49-.82.65-.31.17-.66.25-1.05.25-.58,0-1.11-.11-1.58-.33s-.87-.52-1.2-.9c-.33-.39-.56-.83-.71-1.33-.14-.5-.18-1.05-.09-1.62.08-.55.25-1.07.52-1.55.27-.48.61-.9,1.02-1.27s.87-.65,1.38-.86c.51-.21,1.04-.31,1.59-.31.44,0,.84.09,1.17.28.34.18.63.41.88.69v-.74Zm-2.73,5.72c.32,0,.62-.08.91-.25.29-.17.53-.39.72-.67.2-.28.32-.59.36-.93.05-.34.01-.65-.1-.93-.12-.28-.29-.5-.54-.67-.24-.17-.52-.25-.84-.25s-.62.08-.91.25c-.28.17-.52.39-.71.67-.19.28-.31.59-.36.93s-.01.65.1.93c.11.28.29.5.53.67.24.17.51.25.83.25Z"/><path class="cls-1" d="m120.23,117.02l1.63-11.63h2.33l-1.63,11.63h-2.33Z"/><text class="cls-2" transform="translate(49.22 78.39)"><tspan x="0" y="0">A</tspan></text></g></svg>