<?xml version="1.0" encoding="UTF-8"?>
<svg id="Capa_2" xmlns="http://www.w3.org/2000/svg" viewBox="0 0 59.2 71.04"><defs><style>.cls-1{fill:#036;}</style></defs><g id="Capa_1-2"><path class="cls-1" d="m53.13,16.39l-10.31-10.32c-3.92-3.91-9.12-6.07-14.65-6.07h-13.36C6.64,0,0,6.64,0,14.8v41.44c0,8.16,6.64,14.8,14.8,14.8h29.6c8.16,0,14.8-6.64,14.8-14.8v-25.2c0-5.54-2.16-10.74-6.07-14.65h0Zm-4.19,4.19c.94.94,1.74,1.98,2.38,3.11h-12.85c-1.63,0-2.96-1.33-2.96-2.96V7.87c1.12.65,2.17,1.44,3.11,2.38l10.31,10.32h0Zm4.34,35.67c0,4.9-3.98,8.88-8.88,8.88H14.8c-4.9,0-8.88-3.98-8.88-8.88V14.8c0-4.9,3.98-8.88,8.88-8.88h13.36c.48,0,.96.02,1.44.07v14.73c0,4.9,3.98,8.88,8.88,8.88h14.73c.04.47.07.95.07,1.44v25.2h0Zm-12.71-8.57c1.16,1.15,1.16,3.03,0,4.19l-4.77,4.78c-1.71,1.71-3.95,2.56-6.2,2.56s-4.49-.86-6.2-2.56l-4.77-4.78c-1.16-1.16-1.16-3.03,0-4.19,1.16-1.16,3.03-1.16,4.19,0l3.83,3.83v-13.02c0-1.63,1.32-2.96,2.96-2.96s2.96,1.33,2.96,2.96v13.02l3.83-3.83c1.16-1.16,3.03-1.16,4.19,0h0Z"/></g></svg>