<?xml version="1.0" encoding="UTF-8"?><svg id="Capa_2" xmlns="http://www.w3.org/2000/svg" viewBox="0 0 625.92 582.6"><defs><style>.cls-1{fill:#036;stroke:#036;stroke-miterlimit:10;stroke-width:.44px;}</style></defs><g id="Capa_1-2"><path class="cls-1" d="m.22,382.65c4.65-95.32,27.04-180.53,72.57-259.06,20.8-35.87,46.52-67.67,80.68-91.87C184.11,10.02,218.09-1.57,255.87.44c30.2,1.61,59.53,8.3,88.02,18.36,80.38,28.38,148.67,74.7,204.3,139.28,33.89,39.34,58.13,83.81,72.02,134.28,14.03,50.99.68,93.62-34.35,131.18-26.41,28.31-57.89,49.88-91.62,68.27-70.18,38.26-144.92,64.45-222.73,81.86-39.22,8.78-78.99,11.65-119.01,5.2-49.98-8.05-91.99-29.52-120.66-72.79-16.75-25.27-25.52-53.51-28.88-83.41-1.68-14.92-2.07-29.99-2.73-40.04Z"/></g></svg>