<?xml version="1.0" encoding="UTF-8"?><svg id="Capa_2" xmlns="http://www.w3.org/2000/svg" viewBox="0 0 162.07 23.62"><defs><style>.cls-1{fill:#fff;}.cls-2{fill:#3f96ca;}</style></defs><g id="Capa_1-2"><g><path class="cls-2" d="m30.03.62c-.42,0-.79.08-1.13.25-.34.17-.65.45-.92.84l-12.06,17.22L3.95,1.71c-.52-.72-1.21-1.09-2.05-1.09C.63.62,0,1.33,0,2.73v18.99c0,.6.15.99.44,1.18.29.19.72.28,1.27.28s1.01-.09,1.3-.28c.29-.19.44-.58.44-1.18V7.01l10.4,14.98c.28.41.58.71.92.9.34.19.76.28,1.26.28.45,0,.83-.09,1.14-.28.31-.19.61-.49.91-.9l10.37-14.98v14.7c0,.6.15.99.44,1.18.3.19.73.28,1.3.28s1.01-.09,1.3-.28c.29-.19.44-.58.44-1.18V2.73c0-1.41-.64-2.11-1.92-2.11Z"/><path class="cls-2" d="m42.05.72c-.35-.19-.88-.28-1.56-.28s-1.18.09-1.53.28c-.36.19-.53.58-.53,1.18v19.82c0,.6.18.99.53,1.18.35.19.86.28,1.53.28s1.21-.09,1.56-.28c.35-.19.53-.58.53-1.18V1.9c0-.6-.18-.99-.53-1.18Z"/><path class="cls-1" d="m88.53.33c-.42-.22-.99-.33-1.74-.33s-1.35.11-1.77.33c-.51.27-.77.79-.77,1.57v15.39c0,.5-.33.93-1.02,1.33-.75.43-2.02.65-3.76.65h-9.38c-1.75,0-3.01-.22-3.76-.66-.68-.39-1.02-.83-1.02-1.33V1.9c0-.77-.26-1.3-.77-1.57-.42-.22-1-.33-1.77-.33s-1.31.11-1.74.33c-.51.27-.77.79-.77,1.57v15.39c0,4.12,3.26,6.21,9.69,6.21h9.63c6.43,0,9.69-2.09,9.69-6.21V1.9c0-.77-.26-1.3-.77-1.57Z"/><path class="cls-1" d="m125.22.19c-.48,0-.93.1-1.33.29-.4.2-.77.53-1.09.98l-11.7,16.7L99.5,1.46c-.61-.84-1.42-1.27-2.41-1.27-1.51,0-2.34.9-2.34,2.55v18.99c0,.76.22,1.28.65,1.55.37.23.86.35,1.51.35s1.16-.11,1.54-.35c.43-.27.65-.79.65-1.55v-13.3l9.59,13.82c.31.47.68.82,1.08,1.04.77.43,2.05.47,2.85,0,.36-.22.71-.56,1.05-1.03l9.57-13.82v13.3c0,.76.22,1.28.65,1.55.37.23.87.35,1.54.35s1.16-.11,1.54-.35c.43-.27.65-.79.65-1.55V2.73c0-1.64-.84-2.55-2.37-2.55Z"/><path class="cls-1" d="m161.36,10.24c-.4-.43-.97-.7-1.61-.7h-11.68c-1.22,0-2.2.98-2.2,2.19s.99,2.19,2.2,2.19h8.93v3.37c0,.5-.33.93-1.02,1.33-.75.43-2.02.65-3.76.65h-9.22c-1.75,0-3.02-.22-3.78-.66-.69-.39-1.03-.83-1.03-1.33V6.33c0-.52.34-.96,1.03-1.34.76-.43,2.04-.64,3.79-.64h4.28c.67,0,1.13-.22,1.37-.64.2-.35.29-.83.29-1.47s-.1-1.12-.29-1.47c-.24-.43-.7-.64-1.37-.64h-4.41c-6.43,0-9.69,2.09-9.69,6.21v10.95c0,4.12,3.26,6.21,9.69,6.21h9.47c3.11,0,5.51-.49,7.15-1.46,1.71-1.01,2.58-2.61,2.58-4.75v-5.52c0-.9-.37-1.32-.71-1.53Z"/></g></g></svg>